<svg class="main-svg" xmlns="http://www.w3.org/2000/svg" xmlns:xlink="http://www.w3.org/1999/xlink" width="700" height="500" style="" viewBox="0 0 700 500"><rect x="0" y="0" width="700" height="500" style="fill: rgb(255, 255, 255); fill-opacity: 1;"/><defs id="defs-d25423"><g class="clips"><clipPath id="clipd25423xyplot" class="plotclip"><rect width="570.3091194859794" height="362.72673679461946"/></clipPath><clipPath class="axesclip" id="clipd25423x"><rect x="77.96159447858183" y="0" width="570.3091194859794" height="500"/></clipPath><clipPath class="axesclip" id="clipd25423y"><rect x="0" y="71.87339375546811" width="700" height="362.72673679461946"/></clipPath><clipPath class="axesclip" id="clipd25423xy"><rect x="77.96159447858183" y="71.87339375546811" width="570.3091194859794" height="362.72673679461946"/></clipPath></g><g class="gradients"/></defs><g class="bglayer"/><g class="layer-below"><g class="imagelayer"/><g class="shapelayer"/></g><g class="cartesianlayer"><g class="subplot xy"><g class="layer-subplot"><g class="shapelayer"/><g class="imagelayer"/></g><g class="gridlayer"><g class="x"><path class="xgrid crisp" transform="translate(94.10159447858183,0)" d="M0,71.87339375546811v362.72673679461946" style="stroke: rgb(0, 0, 0); stroke-opacity: 0.1; stroke-width: 0.5px;"/><path class="xgrid crisp" transform="translate(273.4415944785818,0)" d="M0,71.87339375546811v362.72673679461946" style="stroke: rgb(0, 0, 0); stroke-opacity: 0.1; stroke-width: 0.5px;"/><path class="xgrid crisp" transform="translate(452.7915944785818,0)" d="M0,71.87339375546811v362.72673679461946" style="stroke: rgb(0, 0, 0); stroke-opacity: 0.1; stroke-width: 0.5px;"/><path class="xgrid crisp" transform="translate(632.1315944785817,0)" d="M0,71.87339375546811v362.72673679461946" style="stroke: rgb(0, 0, 0); stroke-opacity: 0.1; stroke-width: 0.5px;"/></g><g class="y"><path class="ygrid crisp" transform="translate(0,399.3033937554681)" d="M77.96159447858183,0h570.3091194859794" style="stroke: rgb(0, 0, 0); stroke-opacity: 0.1; stroke-width: 0.5px;"/><path class="ygrid crisp" transform="translate(0,321.0633937554681)" d="M77.96159447858183,0h570.3091194859794" style="stroke: rgb(0, 0, 0); stroke-opacity: 0.1; stroke-width: 0.5px;"/><path class="ygrid crisp" transform="translate(0,242.83339375546814)" d="M77.96159447858183,0h570.3091194859794" style="stroke: rgb(0, 0, 0); stroke-opacity: 0.1; stroke-width: 0.5px;"/><path class="ygrid crisp" transform="translate(0,164.59339375546813)" d="M77.96159447858183,0h570.3091194859794" style="stroke: rgb(0, 0, 0); stroke-opacity: 0.1; stroke-width: 0.5px;"/><path class="ygrid crisp" transform="translate(0,86.36339375546811)" d="M77.96159447858183,0h570.3091194859794" style="stroke: rgb(0, 0, 0); stroke-opacity: 0.1; stroke-width: 0.5px;"/></g></g><g class="zerolinelayer"/><path class="xlines-below"/><path class="ylines-below"/><g class="overlines-below"/><g class="xaxislayer-below"/><g class="yaxislayer-below"/><g class="overaxes-below"/><g class="plot" transform="translate(77.96159447858183,71.87339375546811)" clip-path="url('#clipd25423xyplot')"><g class="scatterlayer mlayer"><g class="trace scatter trace569ed2" style="stroke-miterlimit: 2; opacity: 1;"><g class="fills"/><g class="errorbars"/><g class="lines"><path class="js-line" d="M16.14,14.49L37.66,11.79L39.46,11.62L62.77,10.34L64.56,10.31L86.08,10.65L87.88,10.74L109.4,12.54L111.19,12.75L134.51,16.35L136.3,16.69L159.61,22L161.41,22.48L184.72,29.49L186.52,30.1L209.83,38.82L211.62,39.56L234.94,50L236.73,50.86L260.05,63.01L261.84,64.01L286.95,78.99L288.74,80.13L313.85,97.09L315.64,98.37L338.96,115.88L340.75,117.29L367.65,139.61L369.45,141.18L396.35,165.75L398.14,167.46L426.84,196.15L428.63,198.03L455.53,227.25L457.32,229.27L482.43,258.58L484.22,260.74L512.92,296.64L514.71,298.97L541.61,334.95L543.41,337.42L554.17,352.46" style="vector-effect: non-scaling-stroke; fill: none; stroke: rgb(0, 154, 250); stroke-opacity: 1; stroke-width: 1px; opacity: 1;"/></g><g class="points"/><g class="text"/></g></g></g><g class="overplot"/><path class="xlines-above crisp" d="M76.96159447858183,435.10013055008756H648.2707139645612" style="fill: none; stroke-width: 1px; stroke: rgb(0, 0, 0); stroke-opacity: 1;"/><path class="ylines-above crisp" d="M77.46159447858183,71.87339375546811V434.60013055008756" style="fill: none; stroke-width: 1px; stroke: rgb(0, 0, 0); stroke-opacity: 1;"/><g class="overlines-above"/><g class="xaxislayer-above"><path class="xtick ticks crisp" d="M0,434.60013055008756v-5" transform="translate(94.10159447858183,0)" style="stroke: rgb(0, 0, 0); stroke-opacity: 1; stroke-width: 1px;"/><path class="xtick ticks crisp" d="M0,434.60013055008756v-5" transform="translate(273.4415944785818,0)" style="stroke: rgb(0, 0, 0); stroke-opacity: 1; stroke-width: 1px;"/><path class="xtick ticks crisp" d="M0,434.60013055008756v-5" transform="translate(452.7915944785818,0)" style="stroke: rgb(0, 0, 0); stroke-opacity: 1; stroke-width: 1px;"/><path class="xtick ticks crisp" d="M0,434.60013055008756v-5" transform="translate(632.1315944785817,0)" style="stroke: rgb(0, 0, 0); stroke-opacity: 1; stroke-width: 1px;"/><g class="xtick"><text text-anchor="middle" x="0" y="448.80013055008754" transform="translate(94.10159447858183,0)" style="font-family: sans-serif; font-size: 11px; fill: rgb(0, 0, 0); fill-opacity: 1; white-space: pre;">0</text></g><g class="xtick"><text text-anchor="middle" x="0" y="448.80013055008754" transform="translate(273.4415944785818,0)" style="font-family: sans-serif; font-size: 11px; fill: rgb(0, 0, 0); fill-opacity: 1; white-space: pre;">10</text></g><g class="xtick"><text text-anchor="middle" x="0" y="448.80013055008754" transform="translate(452.7915944785818,0)" style="font-family: sans-serif; font-size: 11px; fill: rgb(0, 0, 0); fill-opacity: 1; white-space: pre;">20</text></g><g class="xtick"><text text-anchor="middle" x="0" y="448.80013055008754" transform="translate(632.1315944785817,0)" style="font-family: sans-serif; font-size: 11px; fill: rgb(0, 0, 0); fill-opacity: 1; white-space: pre;">30</text></g></g><g class="yaxislayer-above"><path class="ytick ticks crisp" d="M77.96159447858183,0h5" transform="translate(0,399.3033937554681)" style="stroke: rgb(0, 0, 0); stroke-opacity: 1; stroke-width: 1px;"/><path class="ytick ticks crisp" d="M77.96159447858183,0h5" transform="translate(0,321.0633937554681)" style="stroke: rgb(0, 0, 0); stroke-opacity: 1; stroke-width: 1px;"/><path class="ytick ticks crisp" d="M77.96159447858183,0h5" transform="translate(0,242.83339375546814)" style="stroke: rgb(0, 0, 0); stroke-opacity: 1; stroke-width: 1px;"/><path class="ytick ticks crisp" d="M77.96159447858183,0h5" transform="translate(0,164.59339375546813)" style="stroke: rgb(0, 0, 0); stroke-opacity: 1; stroke-width: 1px;"/><path class="ytick ticks crisp" d="M77.96159447858183,0h5" transform="translate(0,86.36339375546811)" style="stroke: rgb(0, 0, 0); stroke-opacity: 1; stroke-width: 1px;"/><g class="ytick"><text text-anchor="end" x="74.76159447858183" y="3.8499999999999996" transform="translate(0,399.3033937554681)" style="font-family: sans-serif; font-size: 11px; fill: rgb(0, 0, 0); fill-opacity: 1; white-space: pre;">-2000</text></g><g class="ytick"><text text-anchor="end" x="74.76159447858183" y="3.8499999999999996" transform="translate(0,321.0633937554681)" style="font-family: sans-serif; font-size: 11px; fill: rgb(0, 0, 0); fill-opacity: 1; white-space: pre;">-1500</text></g><g class="ytick"><text text-anchor="end" x="74.76159447858183" y="3.8499999999999996" transform="translate(0,242.83339375546814)" style="font-family: sans-serif; font-size: 11px; fill: rgb(0, 0, 0); fill-opacity: 1; white-space: pre;">-1000</text></g><g class="ytick"><text text-anchor="end" x="74.76159447858183" y="3.8499999999999996" transform="translate(0,164.59339375546813)" style="font-family: sans-serif; font-size: 11px; fill: rgb(0, 0, 0); fill-opacity: 1; white-space: pre;">-500</text></g><g class="ytick"><text text-anchor="end" x="74.76159447858183" y="3.8499999999999996" transform="translate(0,86.36339375546811)" style="font-family: sans-serif; font-size: 11px; fill: rgb(0, 0, 0); fill-opacity: 1; white-space: pre;">0</text></g></g><g class="overaxes-above"/></g></g><g class="polarlayer"/><g class="ternarylayer"/><g class="geolayer"/><g class="funnelarealayer"/><g class="pielayer"/><g class="treemaplayer"/><g class="sunburstlayer"/><g class="glimages"/><defs id="topdefs-d25423"><g class="clips"/><clipPath id="legendd25423"><rect width="58" height="29" x="1" y="1"/></clipPath></defs><g class="layer-above"><g class="imagelayer"/><g class="shapelayer"/></g><g class="infolayer"><g class="legend" pointer-events="all" transform="translate(590,60)"><rect class="bg" shape-rendering="crispEdges" style="stroke: rgb(0, 0, 0); stroke-opacity: 1; fill: rgb(255, 255, 255); fill-opacity: 1; stroke-width: 1px;" width="59" height="30" x="0.5" y="0.5"/><g class="scrollbox" transform="" clip-path="url('#legendd25423')"><g class="groups"><g class="traces" transform="translate(1,15.5)" style="opacity: 1;"><text class="legendtext" text-anchor="start" x="40" y="4.29" style="font-family: sans-serif; font-size: 11px; fill: rgb(0, 0, 0); fill-opacity: 1; white-space: pre;">y1</text><g class="layers" style="opacity: 1;"><g class="legendfill"/><g class="legendlines"><path class="js-line" d="M5,0h30" style="fill: none; stroke: rgb(0, 154, 250); stroke-opacity: 1; stroke-width: 1px;"/></g><g class="legendsymbols"><g class="legendpoints"/></g></g><rect class="legendtoggle" x="0" y="-9.5" width="52.625" height="19" style="fill: rgb(0, 0, 0); fill-opacity: 0;"/></g></g></g><rect class="scrollbar" rx="20" ry="3" width="0" height="0" style="fill: rgb(128, 139, 164); fill-opacity: 1;" x="0" y="0"/></g><g class="g-gtitle"/><g class="g-xtitle"><text class="xtitle" x="363.11615422157155" y="476.3125" text-anchor="middle" style="font-family: sans-serif; font-size: 15px; fill: rgb(0, 0, 0); opacity: 1; font-weight: normal; white-space: pre;">x</text></g><g class="g-ytitle"><text class="ytitle" transform="rotate(-90,21.125,253.23676215277783)" x="21.125" y="253.23676215277783" text-anchor="middle" style="font-family: sans-serif; font-size: 15px; fill: rgb(0, 0, 0); opacity: 1; font-weight: normal; white-space: pre;">x * y</text></g><g class="annotation" data-index="0" style="opacity: 1;"><g class="annotation-text-g" transform="rotate(0,363.1161542215715,73)"><g class="cursor-pointer" transform="translate(273,60)"><rect class="bg" x="0.5" y="0.5" width="180" height="25" style="stroke-width: 1px; stroke: rgb(0, 0, 0); stroke-opacity: 0; fill: rgb(0, 0, 0); fill-opacity: 0;"/><text class="annotation-text" text-anchor="middle" x="90.828125" y="20" style="font-family: sans-serif; font-size: 20px; fill: rgb(0, 0, 0); fill-opacity: 1; white-space: pre;">x * y nin max değeri</text></g></g></g></g></svg>