<?xml version="1.0" encoding="utf-8"?>
<svg xmlns="http://www.w3.org/2000/svg" xmlns:xlink="http://www.w3.org/1999/xlink" width="600" height="400" viewBox="0 0 2400 1600">
<defs>
  <clipPath id="clip850">
    <rect x="0" y="0" width="2400" height="1600"/>
  </clipPath>
</defs>
<path clip-path="url(#clip850)" d="M0 1600 L2400 1600 L2400 0 L0 0  Z" fill="#ffffff" fill-rule="evenodd" fill-opacity="1"/>
<defs>
  <clipPath id="clip851">
    <rect x="480" y="0" width="1681" height="1600"/>
  </clipPath>
</defs>
<path clip-path="url(#clip850)" d="M235.283 1423.18 L2352.76 1423.18 L2352.76 123.472 L235.283 123.472  Z" fill="#ffffff" fill-rule="evenodd" fill-opacity="1"/>
<defs>
  <clipPath id="clip852">
    <rect x="235" y="123" width="2118" height="1301"/>
  </clipPath>
</defs>
<polyline clip-path="url(#clip852)" style="stroke:#000000; stroke-linecap:round; stroke-linejoin:round; stroke-width:2; stroke-opacity:0.1; fill:none" points="715.762,1423.18 715.762,123.472 "/>
<polyline clip-path="url(#clip852)" style="stroke:#000000; stroke-linecap:round; stroke-linejoin:round; stroke-width:2; stroke-opacity:0.1; fill:none" points="1241.45,1423.18 1241.45,123.472 "/>
<polyline clip-path="url(#clip852)" style="stroke:#000000; stroke-linecap:round; stroke-linejoin:round; stroke-width:2; stroke-opacity:0.1; fill:none" points="1767.14,1423.18 1767.14,123.472 "/>
<polyline clip-path="url(#clip852)" style="stroke:#000000; stroke-linecap:round; stroke-linejoin:round; stroke-width:2; stroke-opacity:0.1; fill:none" points="2292.83,1423.18 2292.83,123.472 "/>
<polyline clip-path="url(#clip850)" style="stroke:#000000; stroke-linecap:round; stroke-linejoin:round; stroke-width:4; stroke-opacity:1; fill:none" points="235.283,1423.18 2352.76,1423.18 "/>
<polyline clip-path="url(#clip850)" style="stroke:#000000; stroke-linecap:round; stroke-linejoin:round; stroke-width:4; stroke-opacity:1; fill:none" points="715.762,1423.18 715.762,1404.28 "/>
<polyline clip-path="url(#clip850)" style="stroke:#000000; stroke-linecap:round; stroke-linejoin:round; stroke-width:4; stroke-opacity:1; fill:none" points="1241.45,1423.18 1241.45,1404.28 "/>
<polyline clip-path="url(#clip850)" style="stroke:#000000; stroke-linecap:round; stroke-linejoin:round; stroke-width:4; stroke-opacity:1; fill:none" points="1767.14,1423.18 1767.14,1404.28 "/>
<polyline clip-path="url(#clip850)" style="stroke:#000000; stroke-linecap:round; stroke-linejoin:round; stroke-width:4; stroke-opacity:1; fill:none" points="2292.83,1423.18 2292.83,1404.28 "/>
<path clip-path="url(#clip850)" d="M706.04 1451.02 L724.396 1451.02 L724.396 1454.96 L710.322 1454.96 L710.322 1463.43 Q711.341 1463.08 712.359 1462.92 Q713.378 1462.73 714.396 1462.73 Q720.183 1462.73 723.563 1465.9 Q726.943 1469.08 726.943 1474.49 Q726.943 1480.07 723.47 1483.17 Q719.998 1486.25 713.679 1486.25 Q711.503 1486.25 709.234 1485.88 Q706.989 1485.51 704.582 1484.77 L704.582 1480.07 Q706.665 1481.2 708.887 1481.76 Q711.109 1482.32 713.586 1482.32 Q717.591 1482.32 719.929 1480.21 Q722.267 1478.1 722.267 1474.49 Q722.267 1470.88 719.929 1468.77 Q717.591 1466.67 713.586 1466.67 Q711.711 1466.67 709.836 1467.08 Q707.984 1467.5 706.04 1468.38 L706.04 1451.02 Z" fill="#000000" fill-rule="nonzero" fill-opacity="1" /><path clip-path="url(#clip850)" d="M1216.14 1481.64 L1223.78 1481.64 L1223.78 1455.28 L1215.47 1456.95 L1215.47 1452.69 L1223.73 1451.02 L1228.41 1451.02 L1228.41 1481.64 L1236.05 1481.64 L1236.05 1485.58 L1216.14 1485.58 L1216.14 1481.64 Z" fill="#000000" fill-rule="nonzero" fill-opacity="1" /><path clip-path="url(#clip850)" d="M1255.49 1454.1 Q1251.88 1454.1 1250.05 1457.66 Q1248.24 1461.2 1248.24 1468.33 Q1248.24 1475.44 1250.05 1479.01 Q1251.88 1482.55 1255.49 1482.55 Q1259.12 1482.55 1260.93 1479.01 Q1262.76 1475.44 1262.76 1468.33 Q1262.76 1461.2 1260.93 1457.66 Q1259.12 1454.1 1255.49 1454.1 M1255.49 1450.39 Q1261.3 1450.39 1264.36 1455 Q1267.43 1459.58 1267.43 1468.33 Q1267.43 1477.06 1264.36 1481.67 Q1261.3 1486.25 1255.49 1486.25 Q1249.68 1486.25 1246.6 1481.67 Q1243.55 1477.06 1243.55 1468.33 Q1243.55 1459.58 1246.6 1455 Q1249.68 1450.39 1255.49 1450.39 Z" fill="#000000" fill-rule="nonzero" fill-opacity="1" /><path clip-path="url(#clip850)" d="M1742.32 1481.64 L1749.96 1481.64 L1749.96 1455.28 L1741.65 1456.95 L1741.65 1452.69 L1749.92 1451.02 L1754.59 1451.02 L1754.59 1481.64 L1762.23 1481.64 L1762.23 1485.58 L1742.32 1485.58 L1742.32 1481.64 Z" fill="#000000" fill-rule="nonzero" fill-opacity="1" /><path clip-path="url(#clip850)" d="M1771.72 1451.02 L1790.08 1451.02 L1790.08 1454.96 L1776 1454.96 L1776 1463.43 Q1777.02 1463.08 1778.04 1462.92 Q1779.06 1462.73 1780.08 1462.73 Q1785.87 1462.73 1789.25 1465.9 Q1792.62 1469.08 1792.62 1474.49 Q1792.62 1480.07 1789.15 1483.17 Q1785.68 1486.25 1779.36 1486.25 Q1777.19 1486.25 1774.92 1485.88 Q1772.67 1485.51 1770.26 1484.77 L1770.26 1480.07 Q1772.35 1481.2 1774.57 1481.76 Q1776.79 1482.32 1779.27 1482.32 Q1783.27 1482.32 1785.61 1480.21 Q1787.95 1478.1 1787.95 1474.49 Q1787.95 1470.88 1785.61 1468.77 Q1783.27 1466.67 1779.27 1466.67 Q1777.39 1466.67 1775.52 1467.08 Q1773.67 1467.5 1771.72 1468.38 L1771.72 1451.02 Z" fill="#000000" fill-rule="nonzero" fill-opacity="1" /><path clip-path="url(#clip850)" d="M2271.6 1481.64 L2287.92 1481.64 L2287.92 1485.58 L2265.98 1485.58 L2265.98 1481.64 Q2268.64 1478.89 2273.22 1474.26 Q2277.83 1469.61 2279.01 1468.27 Q2281.25 1465.74 2282.13 1464.01 Q2283.04 1462.25 2283.04 1460.56 Q2283.04 1457.8 2281.09 1456.07 Q2279.17 1454.33 2276.07 1454.33 Q2273.87 1454.33 2271.42 1455.09 Q2268.98 1455.86 2266.21 1457.41 L2266.21 1452.69 Q2269.03 1451.55 2271.48 1450.97 Q2273.94 1450.39 2275.98 1450.39 Q2281.35 1450.39 2284.54 1453.08 Q2287.73 1455.77 2287.73 1460.26 Q2287.73 1462.39 2286.92 1464.31 Q2286.14 1466.2 2284.03 1468.8 Q2283.45 1469.47 2280.35 1472.69 Q2277.25 1475.88 2271.6 1481.64 Z" fill="#000000" fill-rule="nonzero" fill-opacity="1" /><path clip-path="url(#clip850)" d="M2307.73 1454.1 Q2304.12 1454.1 2302.29 1457.66 Q2300.49 1461.2 2300.49 1468.33 Q2300.49 1475.44 2302.29 1479.01 Q2304.12 1482.55 2307.73 1482.55 Q2311.37 1482.55 2313.17 1479.01 Q2315 1475.44 2315 1468.33 Q2315 1461.2 2313.17 1457.66 Q2311.37 1454.1 2307.73 1454.1 M2307.73 1450.39 Q2313.54 1450.39 2316.6 1455 Q2319.68 1459.58 2319.68 1468.33 Q2319.68 1477.06 2316.6 1481.67 Q2313.54 1486.25 2307.73 1486.25 Q2301.92 1486.25 2298.85 1481.67 Q2295.79 1477.06 2295.79 1468.33 Q2295.79 1459.58 2298.85 1455 Q2301.92 1450.39 2307.73 1450.39 Z" fill="#000000" fill-rule="nonzero" fill-opacity="1" /><path clip-path="url(#clip850)" d="M1226.91 1532.4 L1214.02 1549.74 L1227.58 1568.04 L1220.67 1568.04 L1210.29 1554.04 L1199.92 1568.04 L1193.01 1568.04 L1206.86 1549.39 L1194.19 1532.4 L1201.1 1532.4 L1210.55 1545.1 L1220 1532.4 L1226.91 1532.4 Z" fill="#000000" fill-rule="nonzero" fill-opacity="1" /><path clip-path="url(#clip850)" d="M1270.64 1518.58 Q1266.38 1525.9 1264.31 1533.06 Q1262.24 1540.23 1262.24 1547.58 Q1262.24 1554.93 1264.31 1562.16 Q1266.41 1569.35 1270.64 1576.64 L1265.55 1576.64 Q1260.77 1569.16 1258.39 1561.93 Q1256.03 1554.71 1256.03 1547.58 Q1256.03 1540.48 1258.39 1533.29 Q1260.74 1526.09 1265.55 1518.58 L1270.64 1518.58 Z" fill="#000000" fill-rule="nonzero" fill-opacity="1" /><path clip-path="url(#clip850)" d="M1307.66 1533.76 L1307.66 1539.24 Q1305.18 1537.87 1302.66 1537.2 Q1300.18 1536.5 1297.63 1536.5 Q1291.93 1536.5 1288.78 1540.13 Q1285.63 1543.73 1285.63 1550.25 Q1285.63 1556.78 1288.78 1560.4 Q1291.93 1564 1297.63 1564 Q1300.18 1564 1302.66 1563.33 Q1305.18 1562.63 1307.66 1561.26 L1307.66 1566.68 Q1305.21 1567.82 1302.57 1568.39 Q1299.96 1568.97 1297 1568.97 Q1288.94 1568.97 1284.2 1563.91 Q1279.46 1558.85 1279.46 1550.25 Q1279.46 1541.53 1284.23 1536.53 Q1289.04 1531.54 1297.38 1531.54 Q1300.08 1531.54 1302.66 1532.11 Q1305.24 1532.65 1307.66 1533.76 Z" fill="#000000" fill-rule="nonzero" fill-opacity="1" /><path clip-path="url(#clip850)" d="M1345.6 1539.24 Q1347.79 1535.29 1350.85 1533.41 Q1353.9 1531.54 1358.04 1531.54 Q1363.61 1531.54 1366.64 1535.45 Q1369.66 1539.33 1369.66 1546.53 L1369.66 1568.04 L1363.77 1568.04 L1363.77 1546.72 Q1363.77 1541.59 1361.96 1539.11 Q1360.14 1536.63 1356.42 1536.63 Q1351.87 1536.63 1349.23 1539.65 Q1346.58 1542.68 1346.58 1547.9 L1346.58 1568.04 L1340.7 1568.04 L1340.7 1546.72 Q1340.7 1541.56 1338.88 1539.11 Q1337.07 1536.63 1333.28 1536.63 Q1328.79 1536.63 1326.15 1539.68 Q1323.51 1542.71 1323.51 1547.9 L1323.51 1568.04 L1317.62 1568.04 L1317.62 1532.4 L1323.51 1532.4 L1323.51 1537.93 Q1325.51 1534.66 1328.31 1533.1 Q1331.12 1531.54 1334.97 1531.54 Q1338.85 1531.54 1341.56 1533.51 Q1344.29 1535.48 1345.6 1539.24 Z" fill="#000000" fill-rule="nonzero" fill-opacity="1" /><path clip-path="url(#clip850)" d="M1380.42 1518.58 L1385.51 1518.58 Q1390.28 1526.09 1392.64 1533.29 Q1395.03 1540.48 1395.03 1547.58 Q1395.03 1554.71 1392.64 1561.93 Q1390.28 1569.16 1385.51 1576.64 L1380.42 1576.64 Q1384.65 1569.35 1386.72 1562.16 Q1388.82 1554.93 1388.82 1547.58 Q1388.82 1540.23 1386.72 1533.06 Q1384.65 1525.9 1380.42 1518.58 Z" fill="#000000" fill-rule="nonzero" fill-opacity="1" /><polyline clip-path="url(#clip852)" style="stroke:#000000; stroke-linecap:round; stroke-linejoin:round; stroke-width:2; stroke-opacity:0.1; fill:none" points="235.283,1386.4 2352.76,1386.4 "/>
<polyline clip-path="url(#clip852)" style="stroke:#000000; stroke-linecap:round; stroke-linejoin:round; stroke-width:2; stroke-opacity:0.1; fill:none" points="235.283,1067.09 2352.76,1067.09 "/>
<polyline clip-path="url(#clip852)" style="stroke:#000000; stroke-linecap:round; stroke-linejoin:round; stroke-width:2; stroke-opacity:0.1; fill:none" points="235.283,747.781 2352.76,747.781 "/>
<polyline clip-path="url(#clip852)" style="stroke:#000000; stroke-linecap:round; stroke-linejoin:round; stroke-width:2; stroke-opacity:0.1; fill:none" points="235.283,428.474 2352.76,428.474 "/>
<polyline clip-path="url(#clip850)" style="stroke:#000000; stroke-linecap:round; stroke-linejoin:round; stroke-width:4; stroke-opacity:1; fill:none" points="235.283,1423.18 235.283,123.472 "/>
<polyline clip-path="url(#clip850)" style="stroke:#000000; stroke-linecap:round; stroke-linejoin:round; stroke-width:4; stroke-opacity:1; fill:none" points="235.283,1386.4 254.18,1386.4 "/>
<polyline clip-path="url(#clip850)" style="stroke:#000000; stroke-linecap:round; stroke-linejoin:round; stroke-width:4; stroke-opacity:1; fill:none" points="235.283,1067.09 254.18,1067.09 "/>
<polyline clip-path="url(#clip850)" style="stroke:#000000; stroke-linecap:round; stroke-linejoin:round; stroke-width:4; stroke-opacity:1; fill:none" points="235.283,747.781 254.18,747.781 "/>
<polyline clip-path="url(#clip850)" style="stroke:#000000; stroke-linecap:round; stroke-linejoin:round; stroke-width:4; stroke-opacity:1; fill:none" points="235.283,428.474 254.18,428.474 "/>
<path clip-path="url(#clip850)" d="M187.338 1372.19 Q183.727 1372.19 181.899 1375.76 Q180.093 1379.3 180.093 1386.43 Q180.093 1393.54 181.899 1397.1 Q183.727 1400.64 187.338 1400.64 Q190.973 1400.64 192.778 1397.1 Q194.607 1393.54 194.607 1386.43 Q194.607 1379.3 192.778 1375.76 Q190.973 1372.19 187.338 1372.19 M187.338 1368.49 Q193.149 1368.49 196.204 1373.1 Q199.283 1377.68 199.283 1386.43 Q199.283 1395.16 196.204 1399.76 Q193.149 1404.35 187.338 1404.35 Q181.528 1404.35 178.45 1399.76 Q175.394 1395.16 175.394 1386.43 Q175.394 1377.68 178.45 1373.1 Q181.528 1368.49 187.338 1368.49 Z" fill="#000000" fill-rule="nonzero" fill-opacity="1" /><path clip-path="url(#clip850)" d="M121.043 1080.43 L137.362 1080.43 L137.362 1084.37 L115.418 1084.37 L115.418 1080.43 Q118.08 1077.68 122.663 1073.05 Q127.269 1068.4 128.45 1067.05 Q130.695 1064.53 131.575 1062.79 Q132.478 1061.04 132.478 1059.35 Q132.478 1056.59 130.533 1054.85 Q128.612 1053.12 125.51 1053.12 Q123.311 1053.12 120.857 1053.88 Q118.427 1054.65 115.649 1056.2 L115.649 1051.48 Q118.473 1050.34 120.927 1049.76 Q123.38 1049.18 125.418 1049.18 Q130.788 1049.18 133.982 1051.87 Q137.177 1054.55 137.177 1059.04 Q137.177 1061.17 136.367 1063.1 Q135.579 1064.99 133.473 1067.59 Q132.894 1068.26 129.792 1071.48 Q126.691 1074.67 121.043 1080.43 Z" fill="#000000" fill-rule="nonzero" fill-opacity="1" /><path clip-path="url(#clip850)" d="M157.177 1052.89 Q153.566 1052.89 151.737 1056.45 Q149.931 1059.99 149.931 1067.12 Q149.931 1074.23 151.737 1077.79 Q153.566 1081.34 157.177 1081.34 Q160.811 1081.34 162.616 1077.79 Q164.445 1074.23 164.445 1067.12 Q164.445 1059.99 162.616 1056.45 Q160.811 1052.89 157.177 1052.89 M157.177 1049.18 Q162.987 1049.18 166.042 1053.79 Q169.121 1058.37 169.121 1067.12 Q169.121 1075.85 166.042 1080.46 Q162.987 1085.04 157.177 1085.04 Q151.366 1085.04 148.288 1080.46 Q145.232 1075.85 145.232 1067.12 Q145.232 1058.37 148.288 1053.79 Q151.366 1049.18 157.177 1049.18 Z" fill="#000000" fill-rule="nonzero" fill-opacity="1" /><path clip-path="url(#clip850)" d="M187.338 1052.89 Q183.727 1052.89 181.899 1056.45 Q180.093 1059.99 180.093 1067.12 Q180.093 1074.23 181.899 1077.79 Q183.727 1081.34 187.338 1081.34 Q190.973 1081.34 192.778 1077.79 Q194.607 1074.23 194.607 1067.12 Q194.607 1059.99 192.778 1056.45 Q190.973 1052.89 187.338 1052.89 M187.338 1049.18 Q193.149 1049.18 196.204 1053.79 Q199.283 1058.37 199.283 1067.12 Q199.283 1075.85 196.204 1080.46 Q193.149 1085.04 187.338 1085.04 Q181.528 1085.04 178.45 1080.46 Q175.394 1075.85 175.394 1067.12 Q175.394 1058.37 178.45 1053.79 Q181.528 1049.18 187.338 1049.18 Z" fill="#000000" fill-rule="nonzero" fill-opacity="1" /><path clip-path="url(#clip850)" d="M129.862 734.575 L118.056 753.024 L129.862 753.024 L129.862 734.575 M128.635 730.501 L134.515 730.501 L134.515 753.024 L139.445 753.024 L139.445 756.913 L134.515 756.913 L134.515 765.061 L129.862 765.061 L129.862 756.913 L114.26 756.913 L114.26 752.399 L128.635 730.501 Z" fill="#000000" fill-rule="nonzero" fill-opacity="1" /><path clip-path="url(#clip850)" d="M157.177 733.58 Q153.566 733.58 151.737 737.145 Q149.931 740.687 149.931 747.816 Q149.931 754.923 151.737 758.487 Q153.566 762.029 157.177 762.029 Q160.811 762.029 162.616 758.487 Q164.445 754.923 164.445 747.816 Q164.445 740.687 162.616 737.145 Q160.811 733.58 157.177 733.58 M157.177 729.876 Q162.987 729.876 166.042 734.483 Q169.121 739.066 169.121 747.816 Q169.121 756.543 166.042 761.149 Q162.987 765.733 157.177 765.733 Q151.366 765.733 148.288 761.149 Q145.232 756.543 145.232 747.816 Q145.232 739.066 148.288 734.483 Q151.366 729.876 157.177 729.876 Z" fill="#000000" fill-rule="nonzero" fill-opacity="1" /><path clip-path="url(#clip850)" d="M187.338 733.58 Q183.727 733.58 181.899 737.145 Q180.093 740.687 180.093 747.816 Q180.093 754.923 181.899 758.487 Q183.727 762.029 187.338 762.029 Q190.973 762.029 192.778 758.487 Q194.607 754.923 194.607 747.816 Q194.607 740.687 192.778 737.145 Q190.973 733.58 187.338 733.58 M187.338 729.876 Q193.149 729.876 196.204 734.483 Q199.283 739.066 199.283 747.816 Q199.283 756.543 196.204 761.149 Q193.149 765.733 187.338 765.733 Q181.528 765.733 178.45 761.149 Q175.394 756.543 175.394 747.816 Q175.394 739.066 178.45 734.483 Q181.528 729.876 187.338 729.876 Z" fill="#000000" fill-rule="nonzero" fill-opacity="1" /><path clip-path="url(#clip850)" d="M127.593 426.611 Q124.445 426.611 122.593 428.764 Q120.765 430.916 120.765 434.666 Q120.765 438.393 122.593 440.569 Q124.445 442.722 127.593 442.722 Q130.742 442.722 132.57 440.569 Q134.422 438.393 134.422 434.666 Q134.422 430.916 132.57 428.764 Q130.742 426.611 127.593 426.611 M136.876 411.958 L136.876 416.217 Q135.117 415.384 133.311 414.944 Q131.529 414.504 129.769 414.504 Q125.14 414.504 122.686 417.629 Q120.255 420.754 119.908 427.074 Q121.274 425.06 123.334 423.995 Q125.394 422.907 127.871 422.907 Q133.08 422.907 136.089 426.078 Q139.121 429.227 139.121 434.666 Q139.121 439.99 135.973 443.208 Q132.825 446.426 127.593 446.426 Q121.598 446.426 118.427 441.842 Q115.256 437.236 115.256 428.509 Q115.256 420.315 119.144 415.454 Q123.033 410.569 129.584 410.569 Q131.343 410.569 133.126 410.917 Q134.931 411.264 136.876 411.958 Z" fill="#000000" fill-rule="nonzero" fill-opacity="1" /><path clip-path="url(#clip850)" d="M157.177 414.273 Q153.566 414.273 151.737 417.838 Q149.931 421.379 149.931 428.509 Q149.931 435.615 151.737 439.18 Q153.566 442.722 157.177 442.722 Q160.811 442.722 162.616 439.18 Q164.445 435.615 164.445 428.509 Q164.445 421.379 162.616 417.838 Q160.811 414.273 157.177 414.273 M157.177 410.569 Q162.987 410.569 166.042 415.176 Q169.121 419.759 169.121 428.509 Q169.121 437.236 166.042 441.842 Q162.987 446.426 157.177 446.426 Q151.366 446.426 148.288 441.842 Q145.232 437.236 145.232 428.509 Q145.232 419.759 148.288 415.176 Q151.366 410.569 157.177 410.569 Z" fill="#000000" fill-rule="nonzero" fill-opacity="1" /><path clip-path="url(#clip850)" d="M187.338 414.273 Q183.727 414.273 181.899 417.838 Q180.093 421.379 180.093 428.509 Q180.093 435.615 181.899 439.18 Q183.727 442.722 187.338 442.722 Q190.973 442.722 192.778 439.18 Q194.607 435.615 194.607 428.509 Q194.607 421.379 192.778 417.838 Q190.973 414.273 187.338 414.273 M187.338 410.569 Q193.149 410.569 196.204 415.176 Q199.283 419.759 199.283 428.509 Q199.283 437.236 196.204 441.842 Q193.149 446.426 187.338 446.426 Q181.528 446.426 178.45 441.842 Q175.394 437.236 175.394 428.509 Q175.394 419.759 178.45 415.176 Q181.528 410.569 187.338 410.569 Z" fill="#000000" fill-rule="nonzero" fill-opacity="1" /><path clip-path="url(#clip850)" d="M46.0847 1078.63 Q46.0847 1085.72 47.7079 1088.46 Q49.3312 1091.2 53.2461 1091.2 Q56.3653 1091.2 58.2114 1089.16 Q60.0256 1087.09 60.0256 1083.56 Q60.0256 1078.69 56.5881 1075.76 Q53.1188 1072.8 47.3897 1072.8 L46.0847 1072.8 L46.0847 1078.63 M43.6657 1066.94 L64.0042 1066.94 L64.0042 1072.8 L58.5933 1072.8 Q61.8398 1074.81 63.3994 1077.8 Q64.9272 1080.79 64.9272 1085.12 Q64.9272 1090.59 61.8716 1093.84 Q58.7843 1097.05 53.6281 1097.05 Q47.6125 1097.05 44.5569 1093.04 Q41.5014 1089 41.5014 1081.01 L41.5014 1072.8 L40.9285 1072.8 Q36.8862 1072.8 34.6901 1075.47 Q32.4621 1078.12 32.4621 1082.92 Q32.4621 1085.98 33.1941 1088.87 Q33.9262 1091.77 35.3903 1094.44 L29.9795 1094.44 Q28.7381 1091.23 28.1334 1088.21 Q27.4968 1085.18 27.4968 1082.32 Q27.4968 1074.58 31.5072 1070.76 Q35.5176 1066.94 43.6657 1066.94 Z" fill="#000000" fill-rule="nonzero" fill-opacity="1" /><path clip-path="url(#clip850)" d="M14.479 1054.88 L14.479 1049.02 L64.0042 1049.02 L64.0042 1054.88 L14.479 1054.88 Z" fill="#000000" fill-rule="nonzero" fill-opacity="1" /><path clip-path="url(#clip850)" d="M46.0847 1020.57 Q46.0847 1027.67 47.7079 1030.41 Q49.3312 1033.14 53.2461 1033.14 Q56.3653 1033.14 58.2114 1031.11 Q60.0256 1029.04 60.0256 1025.5 Q60.0256 1020.63 56.5881 1017.71 Q53.1188 1014.75 47.3897 1014.75 L46.0847 1014.75 L46.0847 1020.57 M43.6657 1008.89 L64.0042 1008.89 L64.0042 1014.75 L58.5933 1014.75 Q61.8398 1016.75 63.3994 1019.74 Q64.9272 1022.73 64.9272 1027.06 Q64.9272 1032.54 61.8716 1035.78 Q58.7843 1039 53.6281 1039 Q47.6125 1039 44.5569 1034.99 Q41.5014 1030.95 41.5014 1022.96 L41.5014 1014.75 L40.9285 1014.75 Q36.8862 1014.75 34.6901 1017.42 Q32.4621 1020.06 32.4621 1024.87 Q32.4621 1027.92 33.1941 1030.82 Q33.9262 1033.72 35.3903 1036.39 L29.9795 1036.39 Q28.7381 1033.17 28.1334 1030.15 Q27.4968 1027.13 27.4968 1024.26 Q27.4968 1016.53 31.5072 1012.71 Q35.5176 1008.89 43.6657 1008.89 Z" fill="#000000" fill-rule="nonzero" fill-opacity="1" /><path clip-path="url(#clip850)" d="M42.4881 967.194 L64.0042 967.194 L64.0042 973.05 L42.679 973.05 Q37.6183 973.05 35.1038 975.023 Q32.5894 976.997 32.5894 980.944 Q32.5894 985.686 35.6131 988.423 Q38.6368 991.16 43.8567 991.16 L64.0042 991.16 L64.0042 997.049 L28.3562 997.049 L28.3562 991.16 L33.8944 991.16 Q30.6797 989.06 29.0883 986.227 Q27.4968 983.362 27.4968 979.639 Q27.4968 973.496 31.3163 970.345 Q35.1038 967.194 42.4881 967.194 Z" fill="#000000" fill-rule="nonzero" fill-opacity="1" /><path clip-path="url(#clip850)" d="M14.5426 920.724 Q21.8632 924.989 29.0246 927.058 Q36.186 929.127 43.5384 929.127 Q50.8908 929.127 58.1159 927.058 Q65.3091 924.957 72.5979 920.724 L72.5979 925.816 Q65.1182 930.591 57.8931 932.978 Q50.668 935.333 43.5384 935.333 Q36.4406 935.333 29.2474 932.978 Q22.0542 930.623 14.5426 925.816 L14.5426 920.724 Z" fill="#000000" fill-rule="nonzero" fill-opacity="1" /><path clip-path="url(#clip850)" d="M29.7248 883.707 L35.1993 883.707 Q33.8307 886.19 33.1623 888.704 Q32.4621 891.187 32.4621 893.733 Q32.4621 899.431 36.0905 902.582 Q39.6872 905.733 46.212 905.733 Q52.7369 905.733 56.3653 902.582 Q59.9619 899.431 59.9619 893.733 Q59.9619 891.187 59.2935 888.704 Q58.5933 886.19 57.2247 883.707 L62.6355 883.707 Q63.7814 886.158 64.3543 888.8 Q64.9272 891.41 64.9272 894.37 Q64.9272 902.423 59.8664 907.165 Q54.8057 911.907 46.212 911.907 Q37.491 911.907 32.4939 907.133 Q27.4968 902.327 27.4968 893.988 Q27.4968 891.283 28.0697 888.704 Q28.6108 886.126 29.7248 883.707 Z" fill="#000000" fill-rule="nonzero" fill-opacity="1" /><path clip-path="url(#clip850)" d="M35.1993 845.768 Q31.2526 843.572 29.3747 840.516 Q27.4968 837.46 27.4968 833.323 Q27.4968 827.753 31.4117 824.729 Q35.2948 821.705 42.4881 821.705 L64.0042 821.705 L64.0042 827.594 L42.679 827.594 Q37.5546 827.594 35.072 829.408 Q32.5894 831.222 32.5894 834.946 Q32.5894 839.498 35.6131 842.139 Q38.6368 844.781 43.8567 844.781 L64.0042 844.781 L64.0042 850.669 L42.679 850.669 Q37.5228 850.669 35.072 852.484 Q32.5894 854.298 32.5894 858.085 Q32.5894 862.573 35.6449 865.215 Q38.6686 867.857 43.8567 867.857 L64.0042 867.857 L64.0042 873.745 L28.3562 873.745 L28.3562 867.857 L33.8944 867.857 Q30.616 865.852 29.0564 863.051 Q27.4968 860.25 27.4968 856.398 Q27.4968 852.515 29.4702 849.81 Q31.4436 847.073 35.1993 845.768 Z" fill="#000000" fill-rule="nonzero" fill-opacity="1" /><path clip-path="url(#clip850)" d="M24.314 764.796 L30.4887 776.222 L36.6953 764.796 L39.8145 766.642 L33.3533 777.336 L45.3526 777.336 L45.3526 780.965 L33.3533 780.965 L39.8145 791.659 L36.6953 793.505 L30.4887 782.079 L24.314 793.505 L21.163 791.659 L27.6241 780.965 L15.6248 780.965 L15.6248 777.336 L27.6241 777.336 L21.163 766.642 L24.314 764.796 Z" fill="#000000" fill-rule="nonzero" fill-opacity="1" /><path clip-path="url(#clip850)" d="M29.7248 710.337 L35.1993 710.337 Q33.8307 712.82 33.1623 715.334 Q32.4621 717.817 32.4621 720.363 Q32.4621 726.061 36.0905 729.212 Q39.6872 732.363 46.212 732.363 Q52.7369 732.363 56.3653 729.212 Q59.9619 726.061 59.9619 720.363 Q59.9619 717.817 59.2935 715.334 Q58.5933 712.82 57.2247 710.337 L62.6355 710.337 Q63.7814 712.788 64.3543 715.43 Q64.9272 718.04 64.9272 721 Q64.9272 729.052 59.8664 733.795 Q54.8057 738.537 46.212 738.537 Q37.491 738.537 32.4939 733.763 Q27.4968 728.957 27.4968 720.618 Q27.4968 717.913 28.0697 715.334 Q28.6108 712.756 29.7248 710.337 Z" fill="#000000" fill-rule="nonzero" fill-opacity="1" /><path clip-path="url(#clip850)" d="M35.1993 672.398 Q31.2526 670.202 29.3747 667.146 Q27.4968 664.09 27.4968 659.953 Q27.4968 654.383 31.4117 651.359 Q35.2948 648.335 42.4881 648.335 L64.0042 648.335 L64.0042 654.224 L42.679 654.224 Q37.5546 654.224 35.072 656.038 Q32.5894 657.852 32.5894 661.576 Q32.5894 666.127 35.6131 668.769 Q38.6368 671.411 43.8567 671.411 L64.0042 671.411 L64.0042 677.299 L42.679 677.299 Q37.5228 677.299 35.072 679.114 Q32.5894 680.928 32.5894 684.715 Q32.5894 689.203 35.6449 691.845 Q38.6686 694.487 43.8567 694.487 L64.0042 694.487 L64.0042 700.375 L28.3562 700.375 L28.3562 694.487 L33.8944 694.487 Q30.616 692.482 29.0564 689.681 Q27.4968 686.88 27.4968 683.028 Q27.4968 679.145 29.4702 676.44 Q31.4436 673.703 35.1993 672.398 Z" fill="#000000" fill-rule="nonzero" fill-opacity="1" /><path clip-path="url(#clip850)" d="M24.314 591.426 L30.4887 602.852 L36.6953 591.426 L39.8145 593.272 L33.3533 603.966 L45.3526 603.966 L45.3526 607.595 L33.3533 607.595 L39.8145 618.289 L36.6953 620.135 L30.4887 608.709 L24.314 620.135 L21.163 618.289 L27.6241 607.595 L15.6248 607.595 L15.6248 603.966 L27.6241 603.966 L21.163 593.272 L24.314 591.426 Z" fill="#000000" fill-rule="nonzero" fill-opacity="1" /><path clip-path="url(#clip850)" d="M29.7248 536.967 L35.1993 536.967 Q33.8307 539.45 33.1623 541.964 Q32.4621 544.447 32.4621 546.993 Q32.4621 552.691 36.0905 555.842 Q39.6872 558.993 46.212 558.993 Q52.7369 558.993 56.3653 555.842 Q59.9619 552.691 59.9619 546.993 Q59.9619 544.447 59.2935 541.964 Q58.5933 539.45 57.2247 536.967 L62.6355 536.967 Q63.7814 539.418 64.3543 542.06 Q64.9272 544.67 64.9272 547.63 Q64.9272 555.682 59.8664 560.425 Q54.8057 565.167 46.212 565.167 Q37.491 565.167 32.4939 560.393 Q27.4968 555.587 27.4968 547.248 Q27.4968 544.542 28.0697 541.964 Q28.6108 539.386 29.7248 536.967 Z" fill="#000000" fill-rule="nonzero" fill-opacity="1" /><path clip-path="url(#clip850)" d="M35.1993 499.028 Q31.2526 496.832 29.3747 493.776 Q27.4968 490.72 27.4968 486.583 Q27.4968 481.013 31.4117 477.989 Q35.2948 474.965 42.4881 474.965 L64.0042 474.965 L64.0042 480.854 L42.679 480.854 Q37.5546 480.854 35.072 482.668 Q32.5894 484.482 32.5894 488.206 Q32.5894 492.757 35.6131 495.399 Q38.6368 498.041 43.8567 498.041 L64.0042 498.041 L64.0042 503.929 L42.679 503.929 Q37.5228 503.929 35.072 505.744 Q32.5894 507.558 32.5894 511.345 Q32.5894 515.833 35.6449 518.475 Q38.6686 521.117 43.8567 521.117 L64.0042 521.117 L64.0042 527.005 L28.3562 527.005 L28.3562 521.117 L33.8944 521.117 Q30.616 519.111 29.0564 516.311 Q27.4968 513.51 27.4968 509.658 Q27.4968 505.775 29.4702 503.07 Q31.4436 500.333 35.1993 499.028 Z" fill="#000000" fill-rule="nonzero" fill-opacity="1" /><path clip-path="url(#clip850)" d="M14.5426 464.207 L14.5426 459.115 Q22.0542 454.34 29.2474 451.985 Q36.4406 449.598 43.5384 449.598 Q50.668 449.598 57.8931 451.985 Q65.1182 454.34 72.5979 459.115 L72.5979 464.207 Q65.3091 459.974 58.1159 457.905 Q50.8908 455.805 43.5384 455.805 Q36.186 455.805 29.0246 457.905 Q21.8632 459.974 14.5426 464.207 Z" fill="#000000" fill-rule="nonzero" fill-opacity="1" /><path clip-path="url(#clip850)" d="M1040.59 35.9153 Q1043.39 30.8922 1047.28 28.5022 Q1051.17 26.1121 1056.43 26.1121 Q1063.52 26.1121 1067.37 31.0947 Q1071.22 36.0368 1071.22 45.1919 L1071.22 72.576 L1063.73 72.576 L1063.73 45.4349 Q1063.73 38.913 1061.42 35.7533 Q1059.11 32.5936 1054.37 32.5936 Q1048.58 32.5936 1045.21 36.4419 Q1041.85 40.2903 1041.85 46.9338 L1041.85 72.576 L1034.36 72.576 L1034.36 45.4349 Q1034.36 38.8725 1032.05 35.7533 Q1029.74 32.5936 1024.92 32.5936 Q1019.21 32.5936 1015.84 36.4824 Q1012.48 40.3308 1012.48 46.9338 L1012.48 72.576 L1004.99 72.576 L1004.99 27.2059 L1012.48 27.2059 L1012.48 34.2544 Q1015.03 30.082 1018.6 28.0971 Q1022.16 26.1121 1027.06 26.1121 Q1032.01 26.1121 1035.45 28.6237 Q1038.93 31.1352 1040.59 35.9153 Z" fill="#000000" fill-rule="nonzero" fill-opacity="1" /><path clip-path="url(#clip850)" d="M1106.71 49.7694 Q1097.67 49.7694 1094.19 51.8354 Q1090.7 53.9013 1090.7 58.8839 Q1090.7 62.8538 1093.3 65.2034 Q1095.93 67.5124 1100.43 67.5124 Q1106.62 67.5124 1110.35 63.1374 Q1114.12 58.7219 1114.12 51.4303 L1114.12 49.7694 L1106.71 49.7694 M1121.57 46.6907 L1121.57 72.576 L1114.12 72.576 L1114.12 65.6895 Q1111.57 69.8214 1107.76 71.8063 Q1103.95 73.7508 1098.44 73.7508 Q1091.47 73.7508 1087.34 69.8619 Q1083.25 65.9325 1083.25 59.3701 Q1083.25 51.7138 1088.35 47.825 Q1093.5 43.9361 1103.67 43.9361 L1114.12 43.9361 L1114.12 43.2069 Q1114.12 38.0623 1110.72 35.2672 Q1107.35 32.4315 1101.24 32.4315 Q1097.35 32.4315 1093.66 33.3632 Q1089.98 34.295 1086.57 36.1584 L1086.57 29.2718 Q1090.66 27.692 1094.51 26.9223 Q1098.36 26.1121 1102.01 26.1121 Q1111.85 26.1121 1116.71 31.2163 Q1121.57 36.3204 1121.57 46.6907 Z" fill="#000000" fill-rule="nonzero" fill-opacity="1" /><path clip-path="url(#clip850)" d="M1174.64 27.2059 L1158.23 49.2833 L1175.49 72.576 L1166.7 72.576 L1153.49 54.752 L1140.29 72.576 L1131.5 72.576 L1149.12 48.8377 L1133 27.2059 L1141.79 27.2059 L1153.82 43.369 L1165.85 27.2059 L1174.64 27.2059 Z" fill="#000000" fill-rule="nonzero" fill-opacity="1" /><path clip-path="url(#clip850)" d="M1250.11 45.1919 L1250.11 72.576 L1242.65 72.576 L1242.65 45.4349 Q1242.65 38.994 1240.14 35.7938 Q1237.63 32.5936 1232.61 32.5936 Q1226.57 32.5936 1223.09 36.4419 Q1219.6 40.2903 1219.6 46.9338 L1219.6 72.576 L1212.11 72.576 L1212.11 9.54393 L1219.6 9.54393 L1219.6 34.2544 Q1222.28 30.163 1225.88 28.1376 Q1229.53 26.1121 1234.27 26.1121 Q1242.09 26.1121 1246.1 30.9732 Q1250.11 35.7938 1250.11 45.1919 Z" fill="#000000" fill-rule="nonzero" fill-opacity="1" /><path clip-path="url(#clip850)" d="M1285.59 49.7694 Q1276.56 49.7694 1273.08 51.8354 Q1269.59 53.9013 1269.59 58.8839 Q1269.59 62.8538 1272.19 65.2034 Q1274.82 67.5124 1279.31 67.5124 Q1285.51 67.5124 1289.24 63.1374 Q1293.01 58.7219 1293.01 51.4303 L1293.01 49.7694 L1285.59 49.7694 M1300.46 46.6907 L1300.46 72.576 L1293.01 72.576 L1293.01 65.6895 Q1290.45 69.8214 1286.65 71.8063 Q1282.84 73.7508 1277.33 73.7508 Q1270.36 73.7508 1266.23 69.8619 Q1262.14 65.9325 1262.14 59.3701 Q1262.14 51.7138 1267.24 47.825 Q1272.39 43.9361 1282.56 43.9361 L1293.01 43.9361 L1293.01 43.2069 Q1293.01 38.0623 1289.6 35.2672 Q1286.24 32.4315 1280.12 32.4315 Q1276.24 32.4315 1272.55 33.3632 Q1268.86 34.295 1265.46 36.1584 L1265.46 29.2718 Q1269.55 27.692 1273.4 26.9223 Q1277.25 26.1121 1280.89 26.1121 Q1290.74 26.1121 1295.6 31.2163 Q1300.46 36.3204 1300.46 46.6907 Z" fill="#000000" fill-rule="nonzero" fill-opacity="1" /><path clip-path="url(#clip850)" d="M1348.46 28.9478 L1348.46 35.9153 Q1345.3 34.1734 1342.1 33.3227 Q1338.94 32.4315 1335.7 32.4315 Q1328.45 32.4315 1324.44 37.0496 Q1320.43 41.6271 1320.43 49.9314 Q1320.43 58.2358 1324.44 62.8538 Q1328.45 67.4314 1335.7 67.4314 Q1338.94 67.4314 1342.1 66.5807 Q1345.3 65.6895 1348.46 63.9476 L1348.46 70.8341 Q1345.34 72.2924 1341.98 73.0216 Q1338.66 73.7508 1334.89 73.7508 Q1324.64 73.7508 1318.61 67.3098 Q1312.57 60.8689 1312.57 49.9314 Q1312.57 38.832 1318.65 32.472 Q1324.77 26.1121 1335.38 26.1121 Q1338.82 26.1121 1342.1 26.8413 Q1345.38 27.5299 1348.46 28.9478 Z" fill="#000000" fill-rule="nonzero" fill-opacity="1" /><path clip-path="url(#clip850)" d="M1361.43 27.2059 L1368.88 27.2059 L1368.88 72.576 L1361.43 72.576 L1361.43 27.2059 M1361.43 9.54393 L1368.88 9.54393 L1368.88 18.9825 L1361.43 18.9825 L1361.43 9.54393 Z" fill="#000000" fill-rule="nonzero" fill-opacity="1" /><path clip-path="url(#clip850)" d="M1419.8 35.9153 Q1422.6 30.8922 1426.48 28.5022 Q1430.37 26.1121 1435.64 26.1121 Q1442.73 26.1121 1446.58 31.0947 Q1450.42 36.0368 1450.42 45.1919 L1450.42 72.576 L1442.93 72.576 L1442.93 45.4349 Q1442.93 38.913 1440.62 35.7533 Q1438.31 32.5936 1433.57 32.5936 Q1427.78 32.5936 1424.42 36.4419 Q1421.06 40.2903 1421.06 46.9338 L1421.06 72.576 L1413.56 72.576 L1413.56 45.4349 Q1413.56 38.8725 1411.25 35.7533 Q1408.94 32.5936 1404.12 32.5936 Q1398.41 32.5936 1395.05 36.4824 Q1391.69 40.3308 1391.69 46.9338 L1391.69 72.576 L1384.19 72.576 L1384.19 27.2059 L1391.69 27.2059 L1391.69 34.2544 Q1394.24 30.082 1397.8 28.0971 Q1401.37 26.1121 1406.27 26.1121 Q1411.21 26.1121 1414.66 28.6237 Q1418.14 31.1352 1419.8 35.9153 Z" fill="#000000" fill-rule="nonzero" fill-opacity="1" /><path clip-path="url(#clip850)" d="M1529.38 45.1919 L1529.38 72.576 L1521.92 72.576 L1521.92 45.4349 Q1521.92 38.994 1519.41 35.7938 Q1516.9 32.5936 1511.88 32.5936 Q1505.84 32.5936 1502.36 36.4419 Q1498.87 40.2903 1498.87 46.9338 L1498.87 72.576 L1491.38 72.576 L1491.38 27.2059 L1498.87 27.2059 L1498.87 34.2544 Q1501.55 30.163 1505.15 28.1376 Q1508.8 26.1121 1513.54 26.1121 Q1521.36 26.1121 1525.37 30.9732 Q1529.38 35.7938 1529.38 45.1919 Z" fill="#000000" fill-rule="nonzero" fill-opacity="1" /><path clip-path="url(#clip850)" d="M1583.05 48.0275 L1583.05 51.6733 L1548.78 51.6733 Q1549.27 59.3701 1553.4 63.421 Q1557.57 67.4314 1564.98 67.4314 Q1569.28 67.4314 1573.29 66.3781 Q1577.34 65.3249 1581.31 63.2184 L1581.31 70.267 Q1577.3 71.9684 1573.09 72.8596 Q1568.87 73.7508 1564.54 73.7508 Q1553.68 73.7508 1547.32 67.4314 Q1541 61.1119 1541 50.3365 Q1541 39.1965 1547 32.6746 Q1553.03 26.1121 1563.24 26.1121 Q1572.4 26.1121 1577.7 32.0264 Q1583.05 37.9003 1583.05 48.0275 M1575.6 45.84 Q1575.52 39.7232 1572.15 36.0774 Q1568.83 32.4315 1563.32 32.4315 Q1557.09 32.4315 1553.32 35.9558 Q1549.59 39.4801 1549.02 45.8805 L1575.6 45.84 Z" fill="#000000" fill-rule="nonzero" fill-opacity="1" /><polyline clip-path="url(#clip852)" style="stroke:#009af9; stroke-linecap:round; stroke-linejoin:round; stroke-width:4; stroke-opacity:1; fill:none" points="295.211,1227.14 400.349,1070.28 505.487,918.212 610.624,773.326 715.762,638.02 820.9,514.687 926.037,405.724 1031.18,313.524 1136.31,240.482 1241.45,188.994 1346.59,161.454 1451.73,160.256 1556.86,187.797 1662,246.469 1767.14,338.669 1872.28,466.791 1977.41,633.23 2082.55,840.38 2187.69,1090.64 2292.83,1386.4 "/>
<path clip-path="url(#clip850)" d="M2018 270.476 L2282.17 270.476 L2282.17 166.796 L2018 166.796  Z" fill="#ffffff" fill-rule="evenodd" fill-opacity="1"/>
<polyline clip-path="url(#clip850)" style="stroke:#000000; stroke-linecap:round; stroke-linejoin:round; stroke-width:4; stroke-opacity:1; fill:none" points="2018,270.476 2282.17,270.476 2282.17,166.796 2018,166.796 2018,270.476 "/>
<polyline clip-path="url(#clip850)" style="stroke:#009af9; stroke-linecap:round; stroke-linejoin:round; stroke-width:4; stroke-opacity:1; fill:none" points="2041.52,218.636 2182.69,218.636 "/>
<path clip-path="url(#clip850)" d="M2220.06 238.323 Q2218.25 242.953 2216.54 244.365 Q2214.83 245.777 2211.96 245.777 L2208.55 245.777 L2208.55 242.212 L2211.05 242.212 Q2212.81 242.212 2213.79 241.379 Q2214.76 240.545 2215.94 237.443 L2216.7 235.499 L2206.22 209.99 L2210.73 209.99 L2218.83 230.268 L2226.93 209.99 L2231.45 209.99 L2220.06 238.323 Z" fill="#000000" fill-rule="nonzero" fill-opacity="1" /><path clip-path="url(#clip850)" d="M2238.74 231.981 L2246.38 231.981 L2246.38 205.615 L2238.07 207.282 L2238.07 203.022 L2246.33 201.356 L2251.01 201.356 L2251.01 231.981 L2258.65 231.981 L2258.65 235.916 L2238.74 235.916 L2238.74 231.981 Z" fill="#000000" fill-rule="nonzero" fill-opacity="1" /></svg>
