<?xml version="1.0" encoding="utf-8"?>
<svg xmlns="http://www.w3.org/2000/svg" xmlns:xlink="http://www.w3.org/1999/xlink" width="600" height="400" viewBox="0 0 2400 1600">
<defs>
  <clipPath id="clip090">
    <rect x="0" y="0" width="2400" height="1600"/>
  </clipPath>
</defs>
<path clip-path="url(#clip090)" d="M0 1600 L2400 1600 L2400 0 L0 0  Z" fill="#ffffff" fill-rule="evenodd" fill-opacity="1"/>
<defs>
  <clipPath id="clip091">
    <rect x="480" y="0" width="1681" height="1600"/>
  </clipPath>
</defs>
<path clip-path="url(#clip090)" d="M203.964 1423.18 L2352.76 1423.18 L2352.76 123.472 L203.964 123.472  Z" fill="#ffffff" fill-rule="evenodd" fill-opacity="1"/>
<defs>
  <clipPath id="clip092">
    <rect x="203" y="123" width="2150" height="1301"/>
  </clipPath>
</defs>
<polyline clip-path="url(#clip092)" style="stroke:#000000; stroke-linecap:round; stroke-linejoin:round; stroke-width:2; stroke-opacity:0.1; fill:none" points="518.174,1423.18 518.174,123.472 "/>
<polyline clip-path="url(#clip092)" style="stroke:#000000; stroke-linecap:round; stroke-linejoin:round; stroke-width:2; stroke-opacity:0.1; fill:none" points="1024.96,1423.18 1024.96,123.472 "/>
<polyline clip-path="url(#clip092)" style="stroke:#000000; stroke-linecap:round; stroke-linejoin:round; stroke-width:2; stroke-opacity:0.1; fill:none" points="1531.76,1423.18 1531.76,123.472 "/>
<polyline clip-path="url(#clip092)" style="stroke:#000000; stroke-linecap:round; stroke-linejoin:round; stroke-width:2; stroke-opacity:0.1; fill:none" points="2038.55,1423.18 2038.55,123.472 "/>
<polyline clip-path="url(#clip090)" style="stroke:#000000; stroke-linecap:round; stroke-linejoin:round; stroke-width:4; stroke-opacity:1; fill:none" points="203.964,1423.18 2352.76,1423.18 "/>
<polyline clip-path="url(#clip090)" style="stroke:#000000; stroke-linecap:round; stroke-linejoin:round; stroke-width:4; stroke-opacity:1; fill:none" points="518.174,1423.18 518.174,1404.28 "/>
<polyline clip-path="url(#clip090)" style="stroke:#000000; stroke-linecap:round; stroke-linejoin:round; stroke-width:4; stroke-opacity:1; fill:none" points="1024.96,1423.18 1024.96,1404.28 "/>
<polyline clip-path="url(#clip090)" style="stroke:#000000; stroke-linecap:round; stroke-linejoin:round; stroke-width:4; stroke-opacity:1; fill:none" points="1531.76,1423.18 1531.76,1404.28 "/>
<polyline clip-path="url(#clip090)" style="stroke:#000000; stroke-linecap:round; stroke-linejoin:round; stroke-width:4; stroke-opacity:1; fill:none" points="2038.55,1423.18 2038.55,1404.28 "/>
<path clip-path="url(#clip090)" d="M488.116 1468.75 L517.792 1468.75 L517.792 1472.69 L488.116 1472.69 L488.116 1468.75 Z" fill="#000000" fill-rule="nonzero" fill-opacity="1" /><path clip-path="url(#clip090)" d="M531.912 1481.64 L548.231 1481.64 L548.231 1485.58 L526.287 1485.58 L526.287 1481.64 Q528.949 1478.89 533.532 1474.26 Q538.139 1469.61 539.319 1468.27 Q541.565 1465.74 542.444 1464.01 Q543.347 1462.25 543.347 1460.56 Q543.347 1457.8 541.403 1456.07 Q539.482 1454.33 536.38 1454.33 Q534.181 1454.33 531.727 1455.09 Q529.296 1455.86 526.519 1457.41 L526.519 1452.69 Q529.343 1451.55 531.796 1450.97 Q534.25 1450.39 536.287 1450.39 Q541.657 1450.39 544.852 1453.08 Q548.046 1455.77 548.046 1460.26 Q548.046 1462.39 547.236 1464.31 Q546.449 1466.2 544.343 1468.8 Q543.764 1469.47 540.662 1472.69 Q537.56 1475.88 531.912 1481.64 Z" fill="#000000" fill-rule="nonzero" fill-opacity="1" /><path clip-path="url(#clip090)" d="M1024.96 1454.1 Q1021.35 1454.1 1019.52 1457.66 Q1017.72 1461.2 1017.72 1468.33 Q1017.72 1475.44 1019.52 1479.01 Q1021.35 1482.55 1024.96 1482.55 Q1028.6 1482.55 1030.4 1479.01 Q1032.23 1475.44 1032.23 1468.33 Q1032.23 1461.2 1030.4 1457.66 Q1028.6 1454.1 1024.96 1454.1 M1024.96 1450.39 Q1030.77 1450.39 1033.83 1455 Q1036.91 1459.58 1036.91 1468.33 Q1036.91 1477.06 1033.83 1481.67 Q1030.77 1486.25 1024.96 1486.25 Q1019.15 1486.25 1016.08 1481.67 Q1013.02 1477.06 1013.02 1468.33 Q1013.02 1459.58 1016.08 1455 Q1019.15 1450.39 1024.96 1450.39 Z" fill="#000000" fill-rule="nonzero" fill-opacity="1" /><path clip-path="url(#clip090)" d="M1526.41 1481.64 L1542.73 1481.64 L1542.73 1485.58 L1520.78 1485.58 L1520.78 1481.64 Q1523.44 1478.89 1528.03 1474.26 Q1532.63 1469.61 1533.82 1468.27 Q1536.06 1465.74 1536.94 1464.01 Q1537.84 1462.25 1537.84 1460.56 Q1537.84 1457.8 1535.9 1456.07 Q1533.98 1454.33 1530.88 1454.33 Q1528.68 1454.33 1526.22 1455.09 Q1523.79 1455.86 1521.01 1457.41 L1521.01 1452.69 Q1523.84 1451.55 1526.29 1450.97 Q1528.75 1450.39 1530.78 1450.39 Q1536.15 1450.39 1539.35 1453.08 Q1542.54 1455.77 1542.54 1460.26 Q1542.54 1462.39 1541.73 1464.31 Q1540.94 1466.2 1538.84 1468.8 Q1538.26 1469.47 1535.16 1472.69 Q1532.06 1475.88 1526.41 1481.64 Z" fill="#000000" fill-rule="nonzero" fill-opacity="1" /><path clip-path="url(#clip090)" d="M2041.55 1455.09 L2029.75 1473.54 L2041.55 1473.54 L2041.55 1455.09 M2040.33 1451.02 L2046.21 1451.02 L2046.21 1473.54 L2051.14 1473.54 L2051.14 1477.43 L2046.21 1477.43 L2046.21 1485.58 L2041.55 1485.58 L2041.55 1477.43 L2025.95 1477.43 L2025.95 1472.92 L2040.33 1451.02 Z" fill="#000000" fill-rule="nonzero" fill-opacity="1" /><path clip-path="url(#clip090)" d="M1182.67 1532.4 L1169.78 1549.74 L1183.34 1568.04 L1176.43 1568.04 L1166.05 1554.04 L1155.68 1568.04 L1148.77 1568.04 L1162.62 1549.39 L1149.95 1532.4 L1156.85 1532.4 L1166.31 1545.1 L1175.76 1532.4 L1182.67 1532.4 Z" fill="#000000" fill-rule="nonzero" fill-opacity="1" /><path clip-path="url(#clip090)" d="M1235.79 1537.81 L1235.79 1518.52 L1241.65 1518.52 L1241.65 1568.04 L1235.79 1568.04 L1235.79 1562.7 Q1233.94 1565.88 1231.11 1567.44 Q1228.31 1568.97 1224.36 1568.97 Q1217.9 1568.97 1213.83 1563.81 Q1209.79 1558.65 1209.79 1550.25 Q1209.79 1541.85 1213.83 1536.69 Q1217.9 1531.54 1224.36 1531.54 Q1228.31 1531.54 1231.11 1533.1 Q1233.94 1534.62 1235.79 1537.81 M1215.83 1550.25 Q1215.83 1556.71 1218.47 1560.4 Q1221.15 1564.07 1225.79 1564.07 Q1230.44 1564.07 1233.12 1560.4 Q1235.79 1556.71 1235.79 1550.25 Q1235.79 1543.79 1233.12 1540.13 Q1230.44 1536.44 1225.79 1536.44 Q1221.15 1536.44 1218.47 1540.13 Q1215.83 1543.79 1215.83 1550.25 Z" fill="#000000" fill-rule="nonzero" fill-opacity="1" /><path clip-path="url(#clip090)" d="M1284.2 1548.76 L1284.2 1551.62 L1257.27 1551.62 Q1257.66 1557.67 1260.9 1560.85 Q1264.18 1564 1270 1564 Q1273.38 1564 1276.53 1563.17 Q1279.71 1562.35 1282.83 1560.69 L1282.83 1566.23 Q1279.68 1567.57 1276.37 1568.27 Q1273.06 1568.97 1269.65 1568.97 Q1261.12 1568.97 1256.13 1564 Q1251.16 1559.04 1251.16 1550.57 Q1251.16 1541.82 1255.87 1536.69 Q1260.62 1531.54 1268.64 1531.54 Q1275.83 1531.54 1280 1536.18 Q1284.2 1540.8 1284.2 1548.76 M1278.34 1547.04 Q1278.28 1542.23 1275.64 1539.37 Q1273.03 1536.5 1268.7 1536.5 Q1263.8 1536.5 1260.84 1539.27 Q1257.91 1542.04 1257.46 1547.07 L1278.34 1547.04 Z" fill="#000000" fill-rule="nonzero" fill-opacity="1" /><path clip-path="url(#clip090)" d="M1317.27 1549.81 Q1317.27 1543.44 1314.63 1539.94 Q1312.02 1536.44 1307.28 1536.44 Q1302.57 1536.44 1299.92 1539.94 Q1297.31 1543.44 1297.31 1549.81 Q1297.31 1556.14 1299.92 1559.64 Q1302.57 1563.14 1307.28 1563.14 Q1312.02 1563.14 1314.63 1559.64 Q1317.27 1556.14 1317.27 1549.81 M1323.13 1563.62 Q1323.13 1572.72 1319.08 1577.15 Q1315.04 1581.6 1306.7 1581.6 Q1303.62 1581.6 1300.88 1581.13 Q1298.14 1580.68 1295.56 1579.72 L1295.56 1574.03 Q1298.14 1575.43 1300.66 1576.1 Q1303.17 1576.76 1305.78 1576.76 Q1311.54 1576.76 1314.41 1573.74 Q1317.27 1570.75 1317.27 1564.67 L1317.27 1561.77 Q1315.46 1564.92 1312.62 1566.48 Q1309.79 1568.04 1305.84 1568.04 Q1299.29 1568.04 1295.28 1563.05 Q1291.27 1558.05 1291.27 1549.81 Q1291.27 1541.53 1295.28 1536.53 Q1299.29 1531.54 1305.84 1531.54 Q1309.79 1531.54 1312.62 1533.1 Q1315.46 1534.66 1317.27 1537.81 L1317.27 1532.4 L1323.13 1532.4 L1323.13 1563.62 M1298.43 1516.86 L1302.18 1516.86 Q1302.53 1519.25 1304.06 1520.46 Q1305.62 1521.64 1308.39 1521.64 Q1311.13 1521.64 1312.65 1520.46 Q1314.18 1519.28 1314.6 1516.86 L1318.35 1516.86 Q1318.03 1521.42 1315.52 1523.71 Q1313.01 1526 1308.39 1526 Q1303.77 1526 1301.26 1523.71 Q1298.75 1521.42 1298.43 1516.86 Z" fill="#000000" fill-rule="nonzero" fill-opacity="1" /><path clip-path="url(#clip090)" d="M1365.68 1548.76 L1365.68 1551.62 L1338.75 1551.62 Q1339.14 1557.67 1342.38 1560.85 Q1345.66 1564 1351.49 1564 Q1354.86 1564 1358.01 1563.17 Q1361.19 1562.35 1364.31 1560.69 L1364.31 1566.23 Q1361.16 1567.57 1357.85 1568.27 Q1354.54 1568.97 1351.14 1568.97 Q1342.61 1568.97 1337.61 1564 Q1332.64 1559.04 1332.64 1550.57 Q1332.64 1541.82 1337.35 1536.69 Q1342.1 1531.54 1350.12 1531.54 Q1357.31 1531.54 1361.48 1536.18 Q1365.68 1540.8 1365.68 1548.76 M1359.82 1547.04 Q1359.76 1542.23 1357.12 1539.37 Q1354.51 1536.5 1350.18 1536.5 Q1345.28 1536.5 1342.32 1539.27 Q1339.39 1542.04 1338.95 1547.07 L1359.82 1547.04 Z" fill="#000000" fill-rule="nonzero" fill-opacity="1" /><path clip-path="url(#clip090)" d="M1395.95 1537.87 Q1394.96 1537.3 1393.79 1537.04 Q1392.64 1536.76 1391.24 1536.76 Q1386.27 1536.76 1383.6 1540 Q1380.96 1543.22 1380.96 1549.27 L1380.96 1568.04 L1375.07 1568.04 L1375.07 1532.4 L1380.96 1532.4 L1380.96 1537.93 Q1382.81 1534.69 1385.77 1533.13 Q1388.73 1531.54 1392.96 1531.54 Q1393.56 1531.54 1394.3 1531.63 Q1395.03 1531.7 1395.92 1531.85 L1395.95 1537.87 Z" fill="#000000" fill-rule="nonzero" fill-opacity="1" /><path clip-path="url(#clip090)" d="M1402.09 1532.4 L1407.95 1532.4 L1407.95 1568.04 L1402.09 1568.04 L1402.09 1532.4 M1402.09 1518.52 L1407.95 1518.52 L1407.95 1525.93 L1402.09 1525.93 L1402.09 1518.52 Z" fill="#000000" fill-rule="nonzero" fill-opacity="1" /><polyline clip-path="url(#clip092)" style="stroke:#000000; stroke-linecap:round; stroke-linejoin:round; stroke-width:2; stroke-opacity:0.1; fill:none" points="203.964,1386.4 2352.76,1386.4 "/>
<polyline clip-path="url(#clip092)" style="stroke:#000000; stroke-linecap:round; stroke-linejoin:round; stroke-width:2; stroke-opacity:0.1; fill:none" points="203.964,1141.17 2352.76,1141.17 "/>
<polyline clip-path="url(#clip092)" style="stroke:#000000; stroke-linecap:round; stroke-linejoin:round; stroke-width:2; stroke-opacity:0.1; fill:none" points="203.964,895.94 2352.76,895.94 "/>
<polyline clip-path="url(#clip092)" style="stroke:#000000; stroke-linecap:round; stroke-linejoin:round; stroke-width:2; stroke-opacity:0.1; fill:none" points="203.964,650.712 2352.76,650.712 "/>
<polyline clip-path="url(#clip092)" style="stroke:#000000; stroke-linecap:round; stroke-linejoin:round; stroke-width:2; stroke-opacity:0.1; fill:none" points="203.964,405.484 2352.76,405.484 "/>
<polyline clip-path="url(#clip092)" style="stroke:#000000; stroke-linecap:round; stroke-linejoin:round; stroke-width:2; stroke-opacity:0.1; fill:none" points="203.964,160.256 2352.76,160.256 "/>
<polyline clip-path="url(#clip090)" style="stroke:#000000; stroke-linecap:round; stroke-linejoin:round; stroke-width:4; stroke-opacity:1; fill:none" points="203.964,1423.18 203.964,123.472 "/>
<polyline clip-path="url(#clip090)" style="stroke:#000000; stroke-linecap:round; stroke-linejoin:round; stroke-width:4; stroke-opacity:1; fill:none" points="203.964,1386.4 222.861,1386.4 "/>
<polyline clip-path="url(#clip090)" style="stroke:#000000; stroke-linecap:round; stroke-linejoin:round; stroke-width:4; stroke-opacity:1; fill:none" points="203.964,1141.17 222.861,1141.17 "/>
<polyline clip-path="url(#clip090)" style="stroke:#000000; stroke-linecap:round; stroke-linejoin:round; stroke-width:4; stroke-opacity:1; fill:none" points="203.964,895.94 222.861,895.94 "/>
<polyline clip-path="url(#clip090)" style="stroke:#000000; stroke-linecap:round; stroke-linejoin:round; stroke-width:4; stroke-opacity:1; fill:none" points="203.964,650.712 222.861,650.712 "/>
<polyline clip-path="url(#clip090)" style="stroke:#000000; stroke-linecap:round; stroke-linejoin:round; stroke-width:4; stroke-opacity:1; fill:none" points="203.964,405.484 222.861,405.484 "/>
<polyline clip-path="url(#clip090)" style="stroke:#000000; stroke-linecap:round; stroke-linejoin:round; stroke-width:4; stroke-opacity:1; fill:none" points="203.964,160.256 222.861,160.256 "/>
<path clip-path="url(#clip090)" d="M156.019 1372.19 Q152.408 1372.19 150.579 1375.76 Q148.774 1379.3 148.774 1386.43 Q148.774 1393.54 150.579 1397.1 Q152.408 1400.64 156.019 1400.64 Q159.653 1400.64 161.459 1397.1 Q163.288 1393.54 163.288 1386.43 Q163.288 1379.3 161.459 1375.76 Q159.653 1372.19 156.019 1372.19 M156.019 1368.49 Q161.829 1368.49 164.885 1373.1 Q167.964 1377.68 167.964 1386.43 Q167.964 1395.16 164.885 1399.76 Q161.829 1404.35 156.019 1404.35 Q150.209 1404.35 147.13 1399.76 Q144.075 1395.16 144.075 1386.43 Q144.075 1377.68 147.13 1373.1 Q150.209 1368.49 156.019 1368.49 Z" fill="#000000" fill-rule="nonzero" fill-opacity="1" /><path clip-path="url(#clip090)" d="M147.061 1123.89 L165.417 1123.89 L165.417 1127.82 L151.343 1127.82 L151.343 1136.3 Q152.362 1135.95 153.38 1135.79 Q154.399 1135.6 155.417 1135.6 Q161.204 1135.6 164.584 1138.77 Q167.964 1141.94 167.964 1147.36 Q167.964 1152.94 164.491 1156.04 Q161.019 1159.12 154.7 1159.12 Q152.524 1159.12 150.255 1158.75 Q148.01 1158.38 145.603 1157.64 L145.603 1152.94 Q147.686 1154.07 149.908 1154.63 Q152.13 1155.18 154.607 1155.18 Q158.612 1155.18 160.95 1153.08 Q163.288 1150.97 163.288 1147.36 Q163.288 1143.75 160.95 1141.64 Q158.612 1139.54 154.607 1139.54 Q152.732 1139.54 150.857 1139.95 Q149.005 1140.37 147.061 1141.25 L147.061 1123.89 Z" fill="#000000" fill-rule="nonzero" fill-opacity="1" /><path clip-path="url(#clip090)" d="M116.668 909.285 L124.306 909.285 L124.306 882.919 L115.996 884.586 L115.996 880.327 L124.26 878.66 L128.936 878.66 L128.936 909.285 L136.575 909.285 L136.575 913.22 L116.668 913.22 L116.668 909.285 Z" fill="#000000" fill-rule="nonzero" fill-opacity="1" /><path clip-path="url(#clip090)" d="M156.019 881.739 Q152.408 881.739 150.579 885.303 Q148.774 888.845 148.774 895.975 Q148.774 903.081 150.579 906.646 Q152.408 910.188 156.019 910.188 Q159.653 910.188 161.459 906.646 Q163.288 903.081 163.288 895.975 Q163.288 888.845 161.459 885.303 Q159.653 881.739 156.019 881.739 M156.019 878.035 Q161.829 878.035 164.885 882.641 Q167.964 887.225 167.964 895.975 Q167.964 904.701 164.885 909.308 Q161.829 913.891 156.019 913.891 Q150.209 913.891 147.13 909.308 Q144.075 904.701 144.075 895.975 Q144.075 887.225 147.13 882.641 Q150.209 878.035 156.019 878.035 Z" fill="#000000" fill-rule="nonzero" fill-opacity="1" /><path clip-path="url(#clip090)" d="M117.663 664.057 L125.302 664.057 L125.302 637.691 L116.992 639.358 L116.992 635.099 L125.255 633.432 L129.931 633.432 L129.931 664.057 L137.57 664.057 L137.57 667.992 L117.663 667.992 L117.663 664.057 Z" fill="#000000" fill-rule="nonzero" fill-opacity="1" /><path clip-path="url(#clip090)" d="M147.061 633.432 L165.417 633.432 L165.417 637.367 L151.343 637.367 L151.343 645.839 Q152.362 645.492 153.38 645.33 Q154.399 645.145 155.417 645.145 Q161.204 645.145 164.584 648.316 Q167.964 651.488 167.964 656.904 Q167.964 662.483 164.491 665.585 Q161.019 668.663 154.7 668.663 Q152.524 668.663 150.255 668.293 Q148.01 667.923 145.603 667.182 L145.603 662.483 Q147.686 663.617 149.908 664.173 Q152.13 664.728 154.607 664.728 Q158.612 664.728 160.95 662.622 Q163.288 660.515 163.288 656.904 Q163.288 653.293 160.95 651.187 Q158.612 649.08 154.607 649.08 Q152.732 649.08 150.857 649.497 Q149.005 649.913 147.061 650.793 L147.061 633.432 Z" fill="#000000" fill-rule="nonzero" fill-opacity="1" /><path clip-path="url(#clip090)" d="M119.885 418.829 L136.204 418.829 L136.204 422.764 L114.26 422.764 L114.26 418.829 Q116.922 416.074 121.505 411.445 Q126.112 406.792 127.292 405.449 Q129.538 402.926 130.417 401.19 Q131.32 399.431 131.32 397.741 Q131.32 394.987 129.376 393.25 Q127.455 391.514 124.353 391.514 Q122.154 391.514 119.7 392.278 Q117.269 393.042 114.492 394.593 L114.492 389.871 Q117.316 388.737 119.769 388.158 Q122.223 387.579 124.26 387.579 Q129.63 387.579 132.825 390.264 Q136.019 392.95 136.019 397.44 Q136.019 399.57 135.209 401.491 Q134.422 403.389 132.316 405.982 Q131.737 406.653 128.635 409.871 Q125.533 413.065 119.885 418.829 Z" fill="#000000" fill-rule="nonzero" fill-opacity="1" /><path clip-path="url(#clip090)" d="M156.019 391.283 Q152.408 391.283 150.579 394.848 Q148.774 398.389 148.774 405.519 Q148.774 412.625 150.579 416.19 Q152.408 419.732 156.019 419.732 Q159.653 419.732 161.459 416.19 Q163.288 412.625 163.288 405.519 Q163.288 398.389 161.459 394.848 Q159.653 391.283 156.019 391.283 M156.019 387.579 Q161.829 387.579 164.885 392.186 Q167.964 396.769 167.964 405.519 Q167.964 414.246 164.885 418.852 Q161.829 423.435 156.019 423.435 Q150.209 423.435 147.13 418.852 Q144.075 414.246 144.075 405.519 Q144.075 396.769 147.13 392.186 Q150.209 387.579 156.019 387.579 Z" fill="#000000" fill-rule="nonzero" fill-opacity="1" /><path clip-path="url(#clip090)" d="M120.88 173.601 L137.2 173.601 L137.2 177.536 L115.256 177.536 L115.256 173.601 Q117.918 170.847 122.501 166.217 Q127.107 161.564 128.288 160.222 Q130.533 157.698 131.413 155.962 Q132.316 154.203 132.316 152.513 Q132.316 149.759 130.371 148.023 Q128.45 146.286 125.348 146.286 Q123.149 146.286 120.695 147.05 Q118.265 147.814 115.487 149.365 L115.487 144.643 Q118.311 143.509 120.765 142.93 Q123.218 142.351 125.255 142.351 Q130.626 142.351 133.82 145.036 Q137.015 147.722 137.015 152.212 Q137.015 154.342 136.204 156.263 Q135.417 158.161 133.311 160.754 Q132.732 161.425 129.63 164.643 Q126.529 167.837 120.88 173.601 Z" fill="#000000" fill-rule="nonzero" fill-opacity="1" /><path clip-path="url(#clip090)" d="M147.061 142.976 L165.417 142.976 L165.417 146.911 L151.343 146.911 L151.343 155.384 Q152.362 155.036 153.38 154.874 Q154.399 154.689 155.417 154.689 Q161.204 154.689 164.584 157.86 Q167.964 161.032 167.964 166.448 Q167.964 172.027 164.491 175.129 Q161.019 178.208 154.7 178.208 Q152.524 178.208 150.255 177.837 Q148.01 177.467 145.603 176.726 L145.603 172.027 Q147.686 173.161 149.908 173.717 Q152.13 174.272 154.607 174.272 Q158.612 174.272 160.95 172.166 Q163.288 170.059 163.288 166.448 Q163.288 162.837 160.95 160.731 Q158.612 158.624 154.607 158.624 Q152.732 158.624 150.857 159.041 Q149.005 159.458 147.061 160.337 L147.061 142.976 Z" fill="#000000" fill-rule="nonzero" fill-opacity="1" /><path clip-path="url(#clip090)" d="M14.5426 1335.2 Q21.8632 1339.46 29.0246 1341.53 Q36.186 1343.6 43.5384 1343.6 Q50.8908 1343.6 58.1159 1341.53 Q65.3091 1339.43 72.5979 1335.2 L72.5979 1340.29 Q65.1182 1345.06 57.8931 1347.45 Q50.668 1349.8 43.5384 1349.8 Q36.4406 1349.8 29.2474 1347.45 Q22.0542 1345.09 14.5426 1340.29 L14.5426 1335.2 Z" fill="#000000" fill-rule="nonzero" fill-opacity="1" /><path clip-path="url(#clip090)" d="M28.3562 1294.2 L45.7028 1307.09 L64.0042 1293.53 L64.0042 1300.44 L49.9996 1310.81 L64.0042 1321.19 L64.0042 1328.1 L45.3526 1314.25 L28.3562 1326.92 L28.3562 1320.01 L41.0558 1310.56 L28.3562 1301.11 L28.3562 1294.2 Z" fill="#000000" fill-rule="nonzero" fill-opacity="1" /><path clip-path="url(#clip090)" d="M16.4842 1260.97 L34.2127 1243.69 L34.2127 1250.09 L21.6404 1264.09 L34.2127 1278.09 L34.2127 1284.49 L16.4842 1267.21 L16.4842 1260.97 Z" fill="#000000" fill-rule="nonzero" fill-opacity="1" /><path clip-path="url(#clip090)" d="M58.5933 1224.27 L58.5933 1201.83 L64.0042 1201.83 L64.0042 1232.01 L58.5933 1232.01 Q54.8057 1228.35 48.44 1222.04 Q42.0425 1215.71 40.1964 1214.09 Q36.7271 1211 34.34 1209.79 Q31.921 1208.55 29.5975 1208.55 Q25.8099 1208.55 23.4228 1211.22 Q21.0356 1213.86 21.0356 1218.13 Q21.0356 1221.15 22.086 1224.53 Q23.1363 1227.87 25.2688 1231.69 L18.7758 1231.69 Q17.2162 1227.81 16.4205 1224.43 Q15.6248 1221.06 15.6248 1218.26 Q15.6248 1210.87 19.3169 1206.48 Q23.009 1202.09 29.1837 1202.09 Q32.112 1202.09 34.7537 1203.2 Q37.3637 1204.28 40.9285 1207.18 Q41.8515 1207.98 46.2757 1212.24 Q50.668 1216.51 58.5933 1224.27 Z" fill="#000000" fill-rule="nonzero" fill-opacity="1" /><path clip-path="url(#clip090)" d="M43.5384 1171.41 L43.5384 1154.25 L48.7583 1154.25 L48.7583 1171.41 L43.5384 1171.41 Z" fill="#000000" fill-rule="nonzero" fill-opacity="1" /><path clip-path="url(#clip090)" d="M16.4842 1144.03 L16.4842 1118.79 L21.895 1118.79 L21.895 1138.14 L33.5443 1138.14 Q33.0668 1136.74 32.844 1135.34 Q32.5894 1133.94 32.5894 1132.54 Q32.5894 1124.59 36.9499 1119.94 Q41.3104 1115.29 48.7583 1115.29 Q56.429 1115.29 60.694 1120.07 Q64.9272 1124.84 64.9272 1133.53 Q64.9272 1136.52 64.4179 1139.64 Q63.9087 1142.73 62.8902 1146.04 L56.429 1146.04 Q57.9886 1143.17 58.7524 1140.12 Q59.5163 1137.06 59.5163 1133.66 Q59.5163 1128.15 56.6199 1124.94 Q53.7235 1121.72 48.7583 1121.72 Q43.793 1121.72 40.8966 1124.94 Q38.0002 1128.15 38.0002 1133.66 Q38.0002 1136.23 38.5732 1138.81 Q39.1461 1141.36 40.3556 1144.03 L16.4842 1144.03 Z" fill="#000000" fill-rule="nonzero" fill-opacity="1" /><path clip-path="url(#clip090)" d="M28.3562 1073.82 L45.7028 1086.71 L64.0042 1073.15 L64.0042 1080.06 L49.9996 1090.43 L64.0042 1100.81 L64.0042 1107.72 L45.3526 1093.87 L28.3562 1106.54 L28.3562 1099.63 L41.0558 1090.18 L28.3562 1080.73 L28.3562 1073.82 Z" fill="#000000" fill-rule="nonzero" fill-opacity="1" /><path clip-path="url(#clip090)" d="M23.1363 1020.32 L40.8648 1020.32 L40.8648 1002.59 L46.2757 1002.59 L46.2757 1020.32 L64.0042 1020.32 L64.0042 1025.66 L46.2757 1025.66 L46.2757 1043.39 L40.8648 1043.39 L40.8648 1025.66 L23.1363 1025.66 L23.1363 1020.32 Z" fill="#000000" fill-rule="nonzero" fill-opacity="1" /><path clip-path="url(#clip090)" d="M22.086 971.045 L47.4533 987.277 L47.4533 971.045 L22.086 971.045 M16.4842 972.732 L16.4842 964.647 L47.4533 964.647 L47.4533 957.868 L52.8005 957.868 L52.8005 964.647 L64.0042 964.647 L64.0042 971.045 L52.8005 971.045 L52.8005 992.497 L46.5939 992.497 L16.4842 972.732 Z" fill="#000000" fill-rule="nonzero" fill-opacity="1" /><path clip-path="url(#clip090)" d="M55.9197 946.569 L55.9197 939.853 L61.3942 939.853 L71.5793 945.073 L71.5793 949.179 L61.3942 946.569 L55.9197 946.569 Z" fill="#000000" fill-rule="nonzero" fill-opacity="1" /><path clip-path="url(#clip090)" d="M28.3562 876.992 L45.7028 889.882 L64.0042 876.323 L64.0042 883.23 L49.9996 893.606 L64.0042 903.982 L64.0042 910.889 L45.3526 897.043 L28.3562 909.711 L28.3562 902.804 L41.0558 893.351 L28.3562 883.898 L28.3562 876.992 Z" fill="#000000" fill-rule="nonzero" fill-opacity="1" /><path clip-path="url(#clip090)" d="M14.5426 868.971 L14.5426 863.878 Q22.0542 859.104 29.2474 856.749 Q36.4406 854.361 43.5384 854.361 Q50.668 854.361 57.8931 856.749 Q65.1182 859.104 72.5979 863.878 L72.5979 868.971 Q65.3091 864.738 58.1159 862.669 Q50.8908 860.568 43.5384 860.568 Q36.186 860.568 29.0246 862.669 Q21.8632 864.738 14.5426 868.971 Z" fill="#000000" fill-rule="nonzero" fill-opacity="1" /><path clip-path="url(#clip090)" d="M14.5426 807.828 Q21.8632 812.093 29.0246 814.162 Q36.186 816.231 43.5384 816.231 Q50.8908 816.231 58.1159 814.162 Q65.3091 812.061 72.5979 807.828 L72.5979 812.921 Q65.1182 817.695 57.8931 820.082 Q50.668 822.437 43.5384 822.437 Q36.4406 822.437 29.2474 820.082 Q22.0542 817.727 14.5426 812.921 L14.5426 807.828 Z" fill="#000000" fill-rule="nonzero" fill-opacity="1" /><path clip-path="url(#clip090)" d="M28.3562 766.833 L45.7028 779.724 L64.0042 766.165 L64.0042 773.071 L49.9996 783.447 L64.0042 793.824 L64.0042 800.73 L45.3526 786.885 L28.3562 799.553 L28.3562 792.646 L41.0558 783.193 L28.3562 773.74 L28.3562 766.833 Z" fill="#000000" fill-rule="nonzero" fill-opacity="1" /><path clip-path="url(#clip090)" d="M28.3562 741.37 L28.3562 735.164 L58.275 724.024 L28.3562 712.884 L28.3562 706.677 L64.0042 720.045 L64.0042 728.002 L28.3562 741.37 Z" fill="#000000" fill-rule="nonzero" fill-opacity="1" /><path clip-path="url(#clip090)" d="M44.7161 668.101 L47.5806 668.101 L47.5806 695.028 Q53.6281 694.646 56.8109 691.399 Q59.9619 688.121 59.9619 682.296 Q59.9619 678.923 59.1344 675.772 Q58.3069 672.589 56.6518 669.469 L62.1899 669.469 Q63.5267 672.621 64.227 675.931 Q64.9272 679.241 64.9272 682.646 Q64.9272 691.177 59.9619 696.174 Q54.9967 701.139 46.5303 701.139 Q37.7774 701.139 32.6531 696.428 Q27.4968 691.686 27.4968 683.665 Q27.4968 676.472 32.1438 672.302 Q36.7589 668.101 44.7161 668.101 M42.9973 673.957 Q38.1912 674.021 35.3266 676.663 Q32.4621 679.273 32.4621 683.601 Q32.4621 688.503 35.2312 691.463 Q38.0002 694.391 43.0292 694.837 L42.9973 673.957 Z" fill="#000000" fill-rule="nonzero" fill-opacity="1" /><path clip-path="url(#clip090)" d="M67.3143 622.936 Q73.68 625.419 75.6216 627.774 Q77.5631 630.129 77.5631 634.076 L77.5631 638.755 L72.6615 638.755 L72.6615 635.317 Q72.6615 632.898 71.5157 631.562 Q70.3699 630.225 66.1048 628.602 L63.4312 627.551 L28.3562 641.97 L28.3562 635.763 L56.238 624.623 L28.3562 613.483 L28.3562 607.277 L67.3143 622.936 Z" fill="#000000" fill-rule="nonzero" fill-opacity="1" /><path clip-path="url(#clip090)" d="M42.4881 548.839 L64.0042 548.839 L64.0042 554.696 L42.679 554.696 Q37.6183 554.696 35.1038 556.669 Q32.5894 558.643 32.5894 562.589 Q32.5894 567.332 35.6131 570.069 Q38.6368 572.806 43.8567 572.806 L64.0042 572.806 L64.0042 578.695 L28.3562 578.695 L28.3562 572.806 L33.8944 572.806 Q30.6797 570.706 29.0883 567.873 Q27.4968 565.008 27.4968 561.284 Q27.4968 555.141 31.3163 551.99 Q35.1038 548.839 42.4881 548.839 Z" fill="#000000" fill-rule="nonzero" fill-opacity="1" /><path clip-path="url(#clip090)" d="M28.3562 537.158 L28.3562 531.302 L64.0042 531.302 L64.0042 537.158 L28.3562 537.158 M14.479 537.158 L14.479 531.302 L21.895 531.302 L21.895 537.158 L14.479 537.158 Z" fill="#000000" fill-rule="nonzero" fill-opacity="1" /><path clip-path="url(#clip090)" d="M42.4881 489.415 L64.0042 489.415 L64.0042 495.272 L42.679 495.272 Q37.6183 495.272 35.1038 497.245 Q32.5894 499.219 32.5894 503.165 Q32.5894 507.908 35.6131 510.645 Q38.6368 513.382 43.8567 513.382 L64.0042 513.382 L64.0042 519.271 L28.3562 519.271 L28.3562 513.382 L33.8944 513.382 Q30.6797 511.282 29.0883 508.449 Q27.4968 505.584 27.4968 501.86 Q27.4968 495.718 31.3163 492.566 Q35.1038 489.415 42.4881 489.415 Z" fill="#000000" fill-rule="nonzero" fill-opacity="1" /><path clip-path="url(#clip090)" d="M18.2347 451.221 L28.3562 451.221 L28.3562 439.158 L32.9077 439.158 L32.9077 451.221 L52.2594 451.221 Q56.6199 451.221 57.8613 450.044 Q59.1026 448.834 59.1026 445.174 L59.1026 439.158 L64.0042 439.158 L64.0042 445.174 Q64.0042 451.953 61.4897 454.531 Q58.9434 457.11 52.2594 457.11 L32.9077 457.11 L32.9077 461.406 L28.3562 461.406 L28.3562 457.11 L18.2347 457.11 L18.2347 451.221 Z" fill="#000000" fill-rule="nonzero" fill-opacity="1" /><path clip-path="url(#clip090)" d="M32.4621 417.642 Q32.4621 422.353 36.1542 425.09 Q39.8145 427.827 46.212 427.827 Q52.6095 427.827 56.3017 425.122 Q59.9619 422.385 59.9619 417.642 Q59.9619 412.963 56.2698 410.226 Q52.5777 407.489 46.212 407.489 Q39.8781 407.489 36.186 410.226 Q32.4621 412.963 32.4621 417.642 M27.4968 417.642 Q27.4968 410.003 32.4621 405.643 Q37.4273 401.282 46.212 401.282 Q54.9649 401.282 59.9619 405.643 Q64.9272 410.003 64.9272 417.642 Q64.9272 425.313 59.9619 429.673 Q54.9649 434.002 46.212 434.002 Q37.4273 434.002 32.4621 429.673 Q27.4968 425.313 27.4968 417.642 Z" fill="#000000" fill-rule="nonzero" fill-opacity="1" /><path clip-path="url(#clip090)" d="M58.657 385.909 L77.5631 385.909 L77.5631 391.797 L28.3562 391.797 L28.3562 385.909 L33.7671 385.909 Q30.5842 384.063 29.0564 381.262 Q27.4968 378.429 27.4968 374.514 Q27.4968 368.021 32.6531 363.979 Q37.8093 359.905 46.212 359.905 Q54.6147 359.905 59.771 363.979 Q64.9272 368.021 64.9272 374.514 Q64.9272 378.429 63.3994 381.262 Q61.8398 384.063 58.657 385.909 M46.212 365.984 Q39.7508 365.984 36.0905 368.658 Q32.3984 371.3 32.3984 375.947 Q32.3984 380.594 36.0905 383.267 Q39.7508 385.909 46.212 385.909 Q52.6732 385.909 56.3653 383.267 Q60.0256 380.594 60.0256 375.947 Q60.0256 371.3 56.3653 368.658 Q52.6732 365.984 46.212 365.984 Z" fill="#000000" fill-rule="nonzero" fill-opacity="1" /><path clip-path="url(#clip090)" d="M14.479 350.197 L14.479 344.341 L64.0042 344.341 L64.0042 350.197 L14.479 350.197 Z" fill="#000000" fill-rule="nonzero" fill-opacity="1" /><path clip-path="url(#clip090)" d="M46.0847 315.886 Q46.0847 322.984 47.7079 325.721 Q49.3312 328.459 53.2461 328.459 Q56.3653 328.459 58.2114 326.422 Q60.0256 324.353 60.0256 320.82 Q60.0256 315.95 56.5881 313.022 Q53.1188 310.062 47.3897 310.062 L46.0847 310.062 L46.0847 315.886 M43.6657 304.205 L64.0042 304.205 L64.0042 310.062 L58.5933 310.062 Q61.8398 312.067 63.3994 315.059 Q64.9272 318.051 64.9272 322.379 Q64.9272 327.854 61.8716 331.1 Q58.7843 334.315 53.6281 334.315 Q47.6125 334.315 44.5569 330.305 Q41.5014 326.262 41.5014 318.273 L41.5014 310.062 L40.9285 310.062 Q36.8862 310.062 34.6901 312.735 Q32.4621 315.377 32.4621 320.183 Q32.4621 323.239 33.1941 326.135 Q33.9262 329.031 35.3903 331.705 L29.9795 331.705 Q28.7381 328.49 28.1334 325.467 Q27.4968 322.443 27.4968 319.578 Q27.4968 311.844 31.5072 308.025 Q35.5176 304.205 43.6657 304.205 Z" fill="#000000" fill-rule="nonzero" fill-opacity="1" /><path clip-path="url(#clip090)" d="M35.1993 264.388 Q31.2526 262.192 29.3747 259.136 Q27.4968 256.08 27.4968 251.943 Q27.4968 246.373 31.4117 243.349 Q35.2948 240.325 42.4881 240.325 L64.0042 240.325 L64.0042 246.214 L42.679 246.214 Q37.5546 246.214 35.072 248.028 Q32.5894 249.842 32.5894 253.566 Q32.5894 258.118 35.6131 260.759 Q38.6368 263.401 43.8567 263.401 L64.0042 263.401 L64.0042 269.289 L42.679 269.289 Q37.5228 269.289 35.072 271.104 Q32.5894 272.918 32.5894 276.705 Q32.5894 281.193 35.6449 283.835 Q38.6686 286.477 43.8567 286.477 L64.0042 286.477 L64.0042 292.365 L28.3562 292.365 L28.3562 286.477 L33.8944 286.477 Q30.616 284.472 29.0564 281.671 Q27.4968 278.87 27.4968 275.018 Q27.4968 271.135 29.4702 268.43 Q31.4436 265.693 35.1993 264.388 Z" fill="#000000" fill-rule="nonzero" fill-opacity="1" /><path clip-path="url(#clip090)" d="M28.3562 228.644 L28.3562 222.788 L64.0042 222.788 L64.0042 228.644 L28.3562 228.644 M27.4968 225.716 L27.4968 225.716 Z" fill="#000000" fill-rule="nonzero" fill-opacity="1" /><path clip-path="url(#clip090)" d="M14.5426 211.457 L14.5426 206.364 Q22.0542 201.59 29.2474 199.235 Q36.4406 196.848 43.5384 196.848 Q50.668 196.848 57.8931 199.235 Q65.1182 201.59 72.5979 206.364 L72.5979 211.457 Q65.3091 207.224 58.1159 205.155 Q50.8908 203.054 43.5384 203.054 Q36.186 203.054 29.0246 205.155 Q21.8632 207.224 14.5426 211.457 Z" fill="#000000" fill-rule="nonzero" fill-opacity="1" /><path clip-path="url(#clip090)" d="M912.381 9.54393 L912.381 15.7418 L905.251 15.7418 Q901.241 15.7418 899.661 17.3622 Q898.122 18.9825 898.122 23.1955 L898.122 27.2059 L910.396 27.2059 L910.396 32.9987 L898.122 32.9987 L898.122 72.576 L890.627 72.576 L890.627 32.9987 L883.498 32.9987 L883.498 27.2059 L890.627 27.2059 L890.627 24.0462 Q890.627 16.471 894.152 13.0277 Q897.676 9.54393 905.332 9.54393 L912.381 9.54393 Z" fill="#000000" fill-rule="nonzero" fill-opacity="1" /><path clip-path="url(#clip090)" d="M936.524 9.62495 Q931.096 18.942 928.463 28.0566 Q925.83 37.1711 925.83 46.5287 Q925.83 55.8863 928.463 65.0818 Q931.136 74.2369 936.524 83.5134 L930.043 83.5134 Q923.966 73.9938 920.928 64.7983 Q917.931 55.6027 917.931 46.5287 Q917.931 37.4952 920.928 28.3401 Q923.926 19.1851 930.043 9.62495 L936.524 9.62495 Z" fill="#000000" fill-rule="nonzero" fill-opacity="1" /><path clip-path="url(#clip090)" d="M988.7 27.2059 L972.294 49.2833 L989.551 72.576 L980.76 72.576 L967.554 54.752 L954.348 72.576 L945.558 72.576 L963.179 48.8377 L947.057 27.2059 L955.847 27.2059 L967.878 43.369 L979.909 27.2059 L988.7 27.2059 Z" fill="#000000" fill-rule="nonzero" fill-opacity="1" /><path clip-path="url(#clip090)" d="M998.908 9.62495 L1005.39 9.62495 Q1011.47 19.1851 1014.46 28.3401 Q1017.5 37.4952 1017.5 46.5287 Q1017.5 55.6027 1014.46 64.7983 Q1011.47 73.9938 1005.39 83.5134 L998.908 83.5134 Q1004.3 74.2369 1006.93 65.0818 Q1009.6 55.8863 1009.6 46.5287 Q1009.6 37.1711 1006.93 28.0566 Q1004.3 18.942 998.908 9.62495 Z" fill="#000000" fill-rule="nonzero" fill-opacity="1" /><path clip-path="url(#clip090)" d="M1059.79 34.9026 L1111.73 34.9026 L1111.73 41.7081 L1059.79 41.7081 L1059.79 34.9026 M1059.79 51.4303 L1111.73 51.4303 L1111.73 58.3168 L1059.79 58.3168 L1059.79 51.4303 Z" fill="#000000" fill-rule="nonzero" fill-opacity="1" /><path clip-path="url(#clip090)" d="M1192.42 27.2059 L1176.01 49.2833 L1193.27 72.576 L1184.48 72.576 L1171.27 54.752 L1158.07 72.576 L1149.28 72.576 L1166.9 48.8377 L1150.78 27.2059 L1159.57 27.2059 L1171.6 43.369 L1183.63 27.2059 L1192.42 27.2059 Z" fill="#000000" fill-rule="nonzero" fill-opacity="1" /><path clip-path="url(#clip090)" d="M1234.71 12.096 L1256.71 34.6595 L1248.57 34.6595 L1230.74 18.6585 L1212.92 34.6595 L1204.78 34.6595 L1226.77 12.096 L1234.71 12.096 Z" fill="#000000" fill-rule="nonzero" fill-opacity="1" /><path clip-path="url(#clip090)" d="M1281.42 65.6895 L1309.98 65.6895 L1309.98 72.576 L1271.57 72.576 L1271.57 65.6895 Q1276.23 60.8689 1284.25 52.7671 Q1292.32 44.6248 1294.38 42.2752 Q1298.31 37.8598 1299.85 34.8216 Q1301.43 31.7429 1301.43 28.7857 Q1301.43 23.9651 1298.03 20.927 Q1294.66 17.8888 1289.24 17.8888 Q1285.39 17.8888 1281.09 19.2256 Q1276.84 20.5624 1271.98 23.2765 L1271.98 15.0127 Q1276.92 13.0277 1281.22 12.015 Q1285.51 11.0023 1289.07 11.0023 Q1298.47 11.0023 1304.06 15.7013 Q1309.65 20.4004 1309.65 28.2591 Q1309.65 31.9859 1308.24 35.3482 Q1306.86 38.6699 1303.17 43.2069 Q1302.16 44.3817 1296.73 50.0125 Q1291.3 55.6027 1281.42 65.6895 Z" fill="#000000" fill-rule="nonzero" fill-opacity="1" /><path clip-path="url(#clip090)" d="M1348.7 46.5287 L1370.54 46.5287 L1370.54 53.1722 L1348.7 53.1722 L1348.7 46.5287 Z" fill="#000000" fill-rule="nonzero" fill-opacity="1" /><path clip-path="url(#clip090)" d="M1432.31 19.2256 L1411.65 51.5113 L1432.31 51.5113 L1432.31 19.2256 M1430.17 12.096 L1440.46 12.096 L1440.46 51.5113 L1449.09 51.5113 L1449.09 58.3168 L1440.46 58.3168 L1440.46 72.576 L1432.31 72.576 L1432.31 58.3168 L1405.01 58.3168 L1405.01 50.4176 L1430.17 12.096 Z" fill="#000000" fill-rule="nonzero" fill-opacity="1" /><path clip-path="url(#clip090)" d="M1499.28 27.2059 L1482.87 49.2833 L1500.13 72.576 L1491.34 72.576 L1478.13 54.752 L1464.92 72.576 L1456.13 72.576 L1473.76 48.8377 L1457.63 27.2059 L1466.42 27.2059 L1478.45 43.369 L1490.49 27.2059 L1499.28 27.2059 Z" fill="#000000" fill-rule="nonzero" fill-opacity="1" /><path clip-path="url(#clip090)" d="M1567.37 20.5624 L1567.37 43.1259 L1589.94 43.1259 L1589.94 50.0125 L1567.37 50.0125 L1567.37 72.576 L1560.57 72.576 L1560.57 50.0125 L1538 50.0125 L1538 43.1259 L1560.57 43.1259 L1560.57 20.5624 L1567.37 20.5624 Z" fill="#000000" fill-rule="nonzero" fill-opacity="1" /><path clip-path="url(#clip090)" d="M1656.45 19.2256 L1635.79 51.5113 L1656.45 51.5113 L1656.45 19.2256 M1654.3 12.096 L1664.59 12.096 L1664.59 51.5113 L1673.22 51.5113 L1673.22 58.3168 L1664.59 58.3168 L1664.59 72.576 L1656.45 72.576 L1656.45 58.3168 L1629.15 58.3168 L1629.15 50.4176 L1654.3 12.096 Z" fill="#000000" fill-rule="nonzero" fill-opacity="1" /><polyline clip-path="url(#clip092)" style="stroke:#009af9; stroke-linecap:round; stroke-linejoin:round; stroke-width:4; stroke-opacity:1; fill:none" points="264.778,160.256 518.174,601.666 771.569,944.985 1024.96,1190.21 1278.36,1337.35 1531.76,1386.4 1785.15,1337.35 2038.55,1190.21 2291.94,944.985 "/>
<path clip-path="url(#clip090)" d="M2013.82 270.476 L2281.13 270.476 L2281.13 166.796 L2013.82 166.796  Z" fill="#ffffff" fill-rule="evenodd" fill-opacity="1"/>
<polyline clip-path="url(#clip090)" style="stroke:#000000; stroke-linecap:round; stroke-linejoin:round; stroke-width:4; stroke-opacity:1; fill:none" points="2013.82,270.476 2281.13,270.476 2281.13,166.796 2013.82,166.796 2013.82,270.476 "/>
<polyline clip-path="url(#clip090)" style="stroke:#009af9; stroke-linecap:round; stroke-linejoin:round; stroke-width:4; stroke-opacity:1; fill:none" points="2037.7,218.636 2180.95,218.636 "/>
<path clip-path="url(#clip090)" d="M2218.67 238.323 Q2216.86 242.953 2215.15 244.365 Q2213.43 245.777 2210.56 245.777 L2207.16 245.777 L2207.16 242.212 L2209.66 242.212 Q2211.42 242.212 2212.39 241.379 Q2213.37 240.545 2214.55 237.443 L2215.31 235.499 L2204.82 209.99 L2209.34 209.99 L2217.44 230.268 L2225.54 209.99 L2230.06 209.99 L2218.67 238.323 Z" fill="#000000" fill-rule="nonzero" fill-opacity="1" /><path clip-path="url(#clip090)" d="M2237.35 231.981 L2244.99 231.981 L2244.99 205.615 L2236.68 207.282 L2236.68 203.022 L2244.94 201.356 L2249.62 201.356 L2249.62 231.981 L2257.25 231.981 L2257.25 235.916 L2237.35 235.916 L2237.35 231.981 Z" fill="#000000" fill-rule="nonzero" fill-opacity="1" /></svg>
