<svg class="main-svg" xmlns="http://www.w3.org/2000/svg" xmlns:xlink="http://www.w3.org/1999/xlink" width="700" height="500" style="" viewBox="0 0 700 500"><rect x="0" y="0" width="700" height="500" style="fill: rgb(255, 255, 255); fill-opacity: 1;"/><defs id="defs-6aa7fb"><g class="clips"><clipPath id="clip6aa7fbxyplot" class="plotclip"><rect width="574.2134630682144" height="362.72673679461946"/></clipPath><clipPath class="axesclip" id="clip6aa7fbx"><rect x="74.0572508963466" y="0" width="574.2134630682144" height="500"/></clipPath><clipPath class="axesclip" id="clip6aa7fby"><rect x="0" y="71.87339375546811" width="700" height="362.72673679461946"/></clipPath><clipPath class="axesclip" id="clip6aa7fbxy"><rect x="74.0572508963466" y="71.87339375546811" width="574.2134630682144" height="362.72673679461946"/></clipPath></g><g class="gradients"/></defs><g class="bglayer"/><g class="layer-below"><g class="imagelayer"/><g class="shapelayer"/></g><g class="cartesianlayer"><g class="subplot xy"><g class="layer-subplot"><g class="shapelayer"/><g class="imagelayer"/></g><g class="gridlayer"><g class="x"><path class="xgrid crisp" transform="translate(90.3072508963466,0)" d="M0,71.87339375546811v362.72673679461946" style="stroke: rgb(0, 0, 0); stroke-opacity: 0.1; stroke-width: 0.5px;"/><path class="xgrid crisp" transform="translate(225.7372508963466,0)" d="M0,71.87339375546811v362.72673679461946" style="stroke: rgb(0, 0, 0); stroke-opacity: 0.1; stroke-width: 0.5px;"/><path class="xgrid crisp" transform="translate(361.1672508963466,0)" d="M0,71.87339375546811v362.72673679461946" style="stroke: rgb(0, 0, 0); stroke-opacity: 0.1; stroke-width: 0.5px;"/><path class="xgrid crisp" transform="translate(496.5872508963466,0)" d="M0,71.87339375546811v362.72673679461946" style="stroke: rgb(0, 0, 0); stroke-opacity: 0.1; stroke-width: 0.5px;"/><path class="xgrid crisp" transform="translate(632.0172508963467,0)" d="M0,71.87339375546811v362.72673679461946" style="stroke: rgb(0, 0, 0); stroke-opacity: 0.1; stroke-width: 0.5px;"/></g><g class="y"><path class="ygrid crisp" transform="translate(0,424.3333937554681)" d="M74.0572508963466,0h574.2134630682144" style="stroke: rgb(0, 0, 0); stroke-opacity: 0.1; stroke-width: 0.5px;"/><path class="ygrid crisp" transform="translate(0,355.8933937554681)" d="M74.0572508963466,0h574.2134630682144" style="stroke: rgb(0, 0, 0); stroke-opacity: 0.1; stroke-width: 0.5px;"/><path class="ygrid crisp" transform="translate(0,287.45339375546814)" d="M74.0572508963466,0h574.2134630682144" style="stroke: rgb(0, 0, 0); stroke-opacity: 0.1; stroke-width: 0.5px;"/><path class="ygrid crisp" transform="translate(0,219.0133937554681)" d="M74.0572508963466,0h574.2134630682144" style="stroke: rgb(0, 0, 0); stroke-opacity: 0.1; stroke-width: 0.5px;"/><path class="ygrid crisp" transform="translate(0,150.57339375546812)" d="M74.0572508963466,0h574.2134630682144" style="stroke: rgb(0, 0, 0); stroke-opacity: 0.1; stroke-width: 0.5px;"/><path class="ygrid crisp" transform="translate(0,82.14339375546811)" d="M74.0572508963466,0h574.2134630682144" style="stroke: rgb(0, 0, 0); stroke-opacity: 0.1; stroke-width: 0.5px;"/></g></g><g class="zerolinelayer"/><path class="xlines-below"/><path class="ylines-below"/><g class="overlines-below"/><g class="xaxislayer-below"/><g class="yaxislayer-below"/><g class="overaxes-below"/><g class="plot" transform="translate(74.0572508963466,71.87339375546811)" clip-path="url('#clip6aa7fbxyplot')"><g class="scatterlayer mlayer"><g class="trace scatter trace6157c6" style="stroke-miterlimit: 2; opacity: 1;"><g class="fills"/><g class="errorbars"/><g class="lines"><path class="js-line" d="M16.25,352.46L37.92,299.9L43.34,287.44L65.01,240.36L70.42,229.27L92.09,187.66L97.51,177.94L113.76,150.43L119.18,141.81L135.43,117.58L140.84,110.05L157.1,89.11L162.51,82.67L178.76,65.02L184.18,59.68L200.43,45.31L205.85,41.06L222.1,29.98L227.52,26.83L243.77,19.03L249.19,16.97L260.02,13.69L265.44,12.46L276.27,10.81L281.69,10.4L292.52,10.4L297.94,10.81L308.78,12.46L314.19,13.69L325.03,16.97L330.44,19.03L341.28,23.95L346.69,26.83L362.95,37.09L368.36,41.06L384.61,54.61L390.03,59.68L406.28,76.51L411.7,82.67L427.95,102.8L433.37,110.05L449.62,133.46L455.04,141.81L471.29,168.5L476.71,177.94L492.96,207.92L498.37,218.46L520.04,263.35L525.46,275.26L547.13,325.63L552.55,338.91L557.96,352.46" style="vector-effect: non-scaling-stroke; fill: none; stroke: rgb(0, 154, 250); stroke-opacity: 1; stroke-width: 1px; opacity: 1;"/></g><g class="points"/><g class="text"/></g></g></g><g class="overplot"/><path class="xlines-above crisp" d="M73.0572508963466,435.10013055008756H648.2707139645611" style="fill: none; stroke-width: 1px; stroke: rgb(0, 0, 0); stroke-opacity: 1;"/><path class="ylines-above crisp" d="M73.5572508963466,71.87339375546811V434.60013055008756" style="fill: none; stroke-width: 1px; stroke: rgb(0, 0, 0); stroke-opacity: 1;"/><g class="overlines-above"/><g class="xaxislayer-above"><path class="xtick ticks crisp" d="M0,434.60013055008756v-5" transform="translate(90.3072508963466,0)" style="stroke: rgb(0, 0, 0); stroke-opacity: 1; stroke-width: 1px;"/><path class="xtick ticks crisp" d="M0,434.60013055008756v-5" transform="translate(225.7372508963466,0)" style="stroke: rgb(0, 0, 0); stroke-opacity: 1; stroke-width: 1px;"/><path class="xtick ticks crisp" d="M0,434.60013055008756v-5" transform="translate(361.1672508963466,0)" style="stroke: rgb(0, 0, 0); stroke-opacity: 1; stroke-width: 1px;"/><path class="xtick ticks crisp" d="M0,434.60013055008756v-5" transform="translate(496.5872508963466,0)" style="stroke: rgb(0, 0, 0); stroke-opacity: 1; stroke-width: 1px;"/><path class="xtick ticks crisp" d="M0,434.60013055008756v-5" transform="translate(632.0172508963467,0)" style="stroke: rgb(0, 0, 0); stroke-opacity: 1; stroke-width: 1px;"/><g class="xtick"><text text-anchor="middle" x="0" y="448.80013055008754" transform="translate(90.3072508963466,0)" style="font-family: sans-serif; font-size: 11px; fill: rgb(0, 0, 0); fill-opacity: 1; white-space: pre;">0</text></g><g class="xtick"><text text-anchor="middle" x="0" y="448.80013055008754" transform="translate(225.7372508963466,0)" style="font-family: sans-serif; font-size: 11px; fill: rgb(0, 0, 0); fill-opacity: 1; white-space: pre;">25</text></g><g class="xtick"><text text-anchor="middle" x="0" y="448.80013055008754" transform="translate(361.1672508963466,0)" style="font-family: sans-serif; font-size: 11px; fill: rgb(0, 0, 0); fill-opacity: 1; white-space: pre;">50</text></g><g class="xtick"><text text-anchor="middle" x="0" y="448.80013055008754" transform="translate(496.5872508963466,0)" style="font-family: sans-serif; font-size: 11px; fill: rgb(0, 0, 0); fill-opacity: 1; white-space: pre;">75</text></g><g class="xtick"><text text-anchor="middle" x="0" y="448.80013055008754" transform="translate(632.0172508963467,0)" style="font-family: sans-serif; font-size: 11px; fill: rgb(0, 0, 0); fill-opacity: 1; white-space: pre;">100</text></g></g><g class="yaxislayer-above"><path class="ytick ticks crisp" d="M74.0572508963466,0h5" transform="translate(0,424.3333937554681)" style="stroke: rgb(0, 0, 0); stroke-opacity: 1; stroke-width: 1px;"/><path class="ytick ticks crisp" d="M74.0572508963466,0h5" transform="translate(0,355.8933937554681)" style="stroke: rgb(0, 0, 0); stroke-opacity: 1; stroke-width: 1px;"/><path class="ytick ticks crisp" d="M74.0572508963466,0h5" transform="translate(0,287.45339375546814)" style="stroke: rgb(0, 0, 0); stroke-opacity: 1; stroke-width: 1px;"/><path class="ytick ticks crisp" d="M74.0572508963466,0h5" transform="translate(0,219.0133937554681)" style="stroke: rgb(0, 0, 0); stroke-opacity: 1; stroke-width: 1px;"/><path class="ytick ticks crisp" d="M74.0572508963466,0h5" transform="translate(0,150.57339375546812)" style="stroke: rgb(0, 0, 0); stroke-opacity: 1; stroke-width: 1px;"/><path class="ytick ticks crisp" d="M74.0572508963466,0h5" transform="translate(0,82.14339375546811)" style="stroke: rgb(0, 0, 0); stroke-opacity: 1; stroke-width: 1px;"/><g class="ytick"><text text-anchor="end" x="70.8572508963466" y="3.8499999999999996" transform="translate(0,424.3333937554681)" style="font-family: sans-serif; font-size: 11px; fill: rgb(0, 0, 0); fill-opacity: 1; white-space: pre;">0</text></g><g class="ytick"><text text-anchor="end" x="70.8572508963466" y="3.8499999999999996" transform="translate(0,355.8933937554681)" style="font-family: sans-serif; font-size: 11px; fill: rgb(0, 0, 0); fill-opacity: 1; white-space: pre;">1000</text></g><g class="ytick"><text text-anchor="end" x="70.8572508963466" y="3.8499999999999996" transform="translate(0,287.45339375546814)" style="font-family: sans-serif; font-size: 11px; fill: rgb(0, 0, 0); fill-opacity: 1; white-space: pre;">2000</text></g><g class="ytick"><text text-anchor="end" x="70.8572508963466" y="3.8499999999999996" transform="translate(0,219.0133937554681)" style="font-family: sans-serif; font-size: 11px; fill: rgb(0, 0, 0); fill-opacity: 1; white-space: pre;">3000</text></g><g class="ytick"><text text-anchor="end" x="70.8572508963466" y="3.8499999999999996" transform="translate(0,150.57339375546812)" style="font-family: sans-serif; font-size: 11px; fill: rgb(0, 0, 0); fill-opacity: 1; white-space: pre;">4000</text></g><g class="ytick"><text text-anchor="end" x="70.8572508963466" y="3.8499999999999996" transform="translate(0,82.14339375546811)" style="font-family: sans-serif; font-size: 11px; fill: rgb(0, 0, 0); fill-opacity: 1; white-space: pre;">5000</text></g></g><g class="overaxes-above"/></g></g><g class="polarlayer"/><g class="ternarylayer"/><g class="geolayer"/><g class="funnelarealayer"/><g class="pielayer"/><g class="treemaplayer"/><g class="sunburstlayer"/><g class="glimages"/><defs id="topdefs-6aa7fb"><g class="clips"/><clipPath id="legend6aa7fb"><rect width="58" height="29" x="1" y="1"/></clipPath></defs><g class="layer-above"><g class="imagelayer"/><g class="shapelayer"/></g><g class="infolayer"><g class="legend" pointer-events="all" transform="translate(590,60)"><rect class="bg" shape-rendering="crispEdges" width="59" height="30" x="0.5" y="0.5" style="stroke: rgb(0, 0, 0); stroke-opacity: 1; fill: rgb(255, 255, 255); fill-opacity: 1; stroke-width: 1px;"/><g class="scrollbox" transform="" clip-path="url('#legend6aa7fb')"><g class="groups"><g class="traces" transform="translate(1,15.5)" style="opacity: 1;"><text class="legendtext" text-anchor="start" x="40" y="4.29" style="font-family: sans-serif; font-size: 11px; fill: rgb(0, 0, 0); fill-opacity: 1; white-space: pre;">y1</text><g class="layers" style="opacity: 1;"><g class="legendfill"/><g class="legendlines"><path class="js-line" d="M5,0h30" style="fill: none; stroke: rgb(0, 154, 250); stroke-opacity: 1; stroke-width: 1px;"/></g><g class="legendsymbols"><g class="legendpoints"/></g></g><rect class="legendtoggle" x="0" y="-9.5" width="52.625" height="19" style="fill: rgb(0, 0, 0); fill-opacity: 0;"/></g></g></g><rect class="scrollbar" rx="20" ry="3" width="0" height="0" x="0" y="0" style="fill: rgb(128, 139, 164); fill-opacity: 1;"/></g><g class="g-gtitle"/><g class="g-xtitle"><text class="xtitle" x="361.1639824304538" y="476.3125" text-anchor="middle" style="font-family: sans-serif; font-size: 15px; fill: rgb(0, 0, 0); opacity: 1; font-weight: normal; white-space: pre;">x in uzunlugu (m)</text></g><g class="g-ytitle"><text class="ytitle" transform="rotate(-90,20.875,253.23676215277783)" x="20.875" y="253.23676215277783" text-anchor="middle" style="font-family: sans-serif; font-size: 15px; fill: rgb(0, 0, 0); opacity: 1; font-weight: normal; white-space: pre;">alan (m*m)</text></g><g class="annotation" data-index="0" style="opacity: 1;"><g class="annotation-text-g" transform="rotate(0,361.1639824304539,73)"><g class="cursor-pointer" transform="translate(276,60)"><rect class="bg" x="0.5" y="0.5" width="170" height="25" style="stroke-width: 1px; stroke: rgb(0, 0, 0); stroke-opacity: 0; fill: rgb(0, 0, 0); fill-opacity: 0;"/><text class="annotation-text" text-anchor="middle" x="85.375" y="20" style="font-family: sans-serif; font-size: 20px; fill: rgb(0, 0, 0); fill-opacity: 1; white-space: pre;">maximum alani bul</text></g></g></g></g></svg>